<svg id="svg" version="1.1" xmlns="http://www.w3.org/2000/svg" xmlns:xlink="http://www.w3.org/1999/xlink" width="400" height="400" viewBox="0, 0, 400,400"><g id="svgg"><path id="path0" d="M254.892 49.600 C 254.420 50.040,253.576 50.400,253.017 50.400 C 252.267 50.400,252.000 50.610,252.000 51.200 C 252.000 51.733,251.733 52.000,251.200 52.000 C 250.667 52.000,250.400 52.267,250.400 52.800 C 250.400 53.333,250.133 53.600,249.600 53.600 C 249.067 53.600,248.800 53.867,248.800 54.400 C 248.800 54.933,248.533 55.200,248.000 55.200 C 247.467 55.200,247.200 55.467,247.200 56.000 C 247.200 56.533,246.933 56.800,246.400 56.800 C 245.867 56.800,245.600 57.067,245.600 57.600 C 245.600 58.133,245.333 58.400,244.800 58.400 C 244.267 58.400,244.000 58.667,244.000 59.200 C 244.000 59.733,243.733 60.000,243.200 60.000 C 242.667 60.000,242.400 60.267,242.400 60.800 C 242.400 61.333,242.133 61.600,241.600 61.600 C 241.067 61.600,240.800 61.867,240.800 62.400 C 240.800 62.933,240.533 63.200,240.000 63.200 C 239.467 63.200,239.200 63.467,239.200 64.000 C 239.200 64.533,238.933 64.800,238.400 64.800 C 237.867 64.800,237.600 65.067,237.600 65.600 C 237.600 66.133,237.333 66.400,236.800 66.400 C 236.267 66.400,236.000 66.667,236.000 67.200 C 236.000 67.733,235.733 68.000,235.200 68.000 C 234.667 68.000,234.400 68.267,234.400 68.800 C 234.400 69.333,234.133 69.600,233.600 69.600 C 233.067 69.600,232.800 69.867,232.800 70.400 C 232.800 70.933,232.533 71.200,232.000 71.200 C 231.467 71.200,231.200 71.467,231.200 72.000 C 231.200 72.533,230.933 72.800,230.400 72.800 C 229.867 72.800,229.600 73.067,229.600 73.600 C 229.600 74.133,229.333 74.400,228.800 74.400 C 228.267 74.400,228.000 74.667,228.000 75.200 C 228.000 75.733,227.733 76.000,227.200 76.000 C 226.667 76.000,226.400 76.267,226.400 76.800 C 226.400 77.333,226.133 77.600,225.600 77.600 C 225.067 77.600,224.800 77.867,224.800 78.400 C 224.800 78.933,224.533 79.200,224.000 79.200 C 223.467 79.200,223.200 79.467,223.200 80.000 C 223.200 80.533,222.933 80.800,222.400 80.800 C 221.867 80.800,221.600 81.067,221.600 81.600 C 221.600 82.133,221.333 82.400,220.800 82.400 C 220.267 82.400,220.000 82.667,220.000 83.200 C 220.000 83.733,219.733 84.000,219.200 84.000 C 218.667 84.000,218.400 84.267,218.400 84.800 C 218.400 85.333,218.133 85.600,217.600 85.600 C 217.067 85.600,216.800 85.867,216.800 86.400 C 216.800 86.933,216.533 87.200,216.000 87.200 C 215.467 87.200,215.200 87.467,215.200 88.000 C 215.200 88.533,214.933 88.800,214.400 88.800 C 213.867 88.800,213.600 89.067,213.600 89.600 C 213.600 90.133,213.333 90.400,212.800 90.400 C 212.267 90.400,212.000 90.667,212.000 91.200 C 212.000 91.733,211.733 92.000,211.200 92.000 C 210.667 92.000,210.400 92.267,210.400 92.800 C 210.400 93.333,210.133 93.600,209.600 93.600 C 209.067 93.600,208.800 93.867,208.800 94.400 C 208.800 94.933,208.533 95.200,208.000 95.200 C 207.467 95.200,207.200 95.467,207.200 96.000 C 207.200 96.533,206.933 96.800,206.400 96.800 C 205.867 96.800,205.600 97.067,205.600 97.600 C 205.600 98.133,205.333 98.400,204.800 98.400 C 204.267 98.400,204.000 98.667,204.000 99.200 C 204.000 99.733,203.733 100.000,203.200 100.000 C 202.667 100.000,202.400 100.267,202.400 100.800 C 202.400 101.333,202.133 101.600,201.600 101.600 C 201.067 101.600,200.800 101.867,200.800 102.400 C 200.800 102.933,200.533 103.200,200.000 103.200 C 199.467 103.200,199.200 103.467,199.200 104.000 C 199.200 104.533,198.933 104.800,198.400 104.800 C 197.867 104.800,197.600 105.067,197.600 105.600 C 197.600 106.133,197.333 106.400,196.800 106.400 C 196.267 106.400,196.000 106.667,196.000 107.200 C 196.000 107.733,195.733 108.000,195.200 108.000 C 194.667 108.000,194.400 108.267,194.400 108.800 C 194.400 109.333,194.133 109.600,193.600 109.600 C 193.067 109.600,192.800 109.867,192.800 110.400 C 192.800 110.933,192.533 111.200,192.000 111.200 C 191.467 111.200,191.200 111.467,191.200 112.000 C 191.200 112.533,190.933 112.800,190.400 112.800 C 189.867 112.800,189.600 113.067,189.600 113.600 C 189.600 114.133,189.333 114.400,188.800 114.400 C 188.267 114.400,188.000 114.667,188.000 115.200 C 188.000 115.733,187.733 116.000,187.200 116.000 C 186.667 116.000,186.400 116.267,186.400 116.800 C 186.400 117.333,186.133 117.600,185.600 117.600 C 185.067 117.600,184.800 117.867,184.800 118.400 C 184.800 118.933,184.533 119.200,184.000 119.200 C 183.467 119.200,183.200 119.467,183.200 120.000 C 183.200 120.533,182.933 120.800,182.400 120.800 C 181.867 120.800,181.600 121.067,181.600 121.600 C 181.600 122.133,181.333 122.400,180.800 122.400 C 180.267 122.400,180.000 122.667,180.000 123.200 C 180.000 123.733,179.733 124.000,179.200 124.000 C 178.667 124.000,178.400 124.267,178.400 124.800 C 178.400 125.333,178.133 125.600,177.600 125.600 C 177.067 125.600,176.800 125.867,176.800 126.400 C 176.800 126.933,176.533 127.200,176.000 127.200 C 175.467 127.200,175.200 127.467,175.200 128.000 C 175.200 128.533,174.933 128.800,174.400 128.800 C 173.883 128.800,173.600 129.067,173.600 129.553 C 173.600 129.970,173.243 130.400,172.800 130.516 C 172.073 130.706,172.000 131.062,172.000 134.400 C 172.000 137.738,172.073 138.094,172.800 138.284 C 173.243 138.400,173.600 138.830,173.600 139.247 C 173.600 139.733,173.883 140.000,174.400 140.000 C 174.933 140.000,175.200 140.267,175.200 140.800 C 175.200 141.333,175.467 141.600,176.000 141.600 C 176.533 141.600,176.800 141.867,176.800 142.400 C 176.800 142.933,177.067 143.200,177.600 143.200 C 178.133 143.200,178.400 143.467,178.400 144.000 C 178.400 144.533,178.667 144.800,179.200 144.800 C 179.733 144.800,180.000 145.067,180.000 145.600 C 180.000 146.133,180.267 146.400,180.800 146.400 C 181.333 146.400,181.600 146.667,181.600 147.200 C 181.600 147.733,181.867 148.000,182.400 148.000 C 182.933 148.000,183.200 148.267,183.200 148.800 C 183.200 149.333,183.467 149.600,184.000 149.600 C 184.533 149.600,184.800 149.867,184.800 150.400 C 184.800 150.933,185.067 151.200,185.600 151.200 C 186.133 151.200,186.400 151.467,186.400 152.000 C 186.400 152.517,186.667 152.800,187.153 152.800 C 187.570 152.800,188.000 153.157,188.116 153.600 C 188.438 154.832,196.000 154.832,196.000 153.600 C 196.000 153.067,196.267 152.800,196.800 152.800 C 197.333 152.800,197.600 152.533,197.600 152.000 C 197.600 151.467,197.867 151.200,198.400 151.200 C 198.933 151.200,199.200 150.933,199.200 150.400 C 199.200 149.867,199.467 149.600,200.000 149.600 C 200.533 149.600,200.800 149.333,200.800 148.800 C 200.800 148.267,201.067 148.000,201.600 148.000 C 202.133 148.000,202.400 147.733,202.400 147.200 C 202.400 146.667,202.667 146.400,203.200 146.400 C 203.733 146.400,204.000 146.133,204.000 145.600 C 204.000 145.067,204.267 144.800,204.800 144.800 C 205.333 144.800,205.600 144.533,205.600 144.000 C 205.600 143.467,205.867 143.200,206.400 143.200 C 206.933 143.200,207.200 142.933,207.200 142.400 C 207.200 141.867,207.467 141.600,208.000 141.600 C 208.533 141.600,208.800 141.333,208.800 140.800 C 208.800 140.267,209.067 140.000,209.600 140.000 C 210.133 140.000,210.400 139.733,210.400 139.200 C 210.400 138.667,210.667 138.400,211.200 138.400 C 211.733 138.400,212.000 138.133,212.000 137.600 C 212.000 137.067,212.267 136.800,212.800 136.800 C 213.333 136.800,213.600 136.533,213.600 136.000 C 213.600 135.467,213.867 135.200,214.400 135.200 C 214.933 135.200,215.200 134.933,215.200 134.400 C 215.200 133.867,215.467 133.600,216.000 133.600 C 216.533 133.600,216.800 133.333,216.800 132.800 C 216.800 132.267,217.067 132.000,217.600 132.000 C 218.133 132.000,218.400 131.733,218.400 131.200 C 218.400 130.667,218.667 130.400,219.200 130.400 C 219.733 130.400,220.000 130.133,220.000 129.600 C 220.000 129.067,220.267 128.800,220.800 128.800 C 221.333 128.800,221.600 128.533,221.600 128.000 C 221.600 127.467,221.867 127.200,222.400 127.200 C 222.933 127.200,223.200 126.933,223.200 126.400 C 223.200 125.867,223.467 125.600,224.000 125.600 C 224.533 125.600,224.800 125.333,224.800 124.800 C 224.800 124.267,225.067 124.000,225.600 124.000 C 226.133 124.000,226.400 123.733,226.400 123.200 C 226.400 122.667,226.667 122.400,227.200 122.400 C 227.733 122.400,228.000 122.133,228.000 121.600 C 228.000 121.067,228.267 120.800,228.800 120.800 C 229.333 120.800,229.600 120.533,229.600 120.000 C 229.600 119.467,229.867 119.200,230.400 119.200 C 230.933 119.200,231.200 118.933,231.200 118.400 C 231.200 117.867,231.467 117.600,232.000 117.600 C 232.533 117.600,232.800 117.333,232.800 116.800 C 232.800 116.267,233.067 116.000,233.600 116.000 C 234.133 116.000,234.400 115.733,234.400 115.200 C 234.400 114.667,234.667 114.400,235.200 114.400 C 235.733 114.400,236.000 114.133,236.000 113.600 C 236.000 113.067,236.267 112.800,236.800 112.800 C 237.333 112.800,237.600 112.533,237.600 112.000 C 237.600 111.467,237.867 111.200,238.400 111.200 C 238.933 111.200,239.200 110.933,239.200 110.400 C 239.200 109.867,239.467 109.600,240.000 109.600 C 240.533 109.600,240.800 109.333,240.800 108.800 C 240.800 108.267,241.067 108.000,241.600 108.000 C 242.133 108.000,242.400 107.733,242.400 107.200 C 242.400 106.667,242.667 106.400,243.200 106.400 C 243.733 106.400,244.000 106.133,244.000 105.600 C 244.000 105.067,244.267 104.800,244.800 104.800 C 245.333 104.800,245.600 104.533,245.600 104.000 C 245.600 103.467,245.867 103.200,246.400 103.200 C 246.933 103.200,247.200 102.933,247.200 102.400 C 247.200 101.867,247.467 101.600,248.000 101.600 C 248.533 101.600,248.800 101.333,248.800 100.800 C 248.800 100.267,249.067 100.000,249.600 100.000 C 250.133 100.000,250.400 99.733,250.400 99.200 C 250.400 98.667,250.667 98.400,251.200 98.400 C 251.733 98.400,252.000 98.133,252.000 97.600 C 252.000 97.067,252.267 96.800,252.800 96.800 C 253.333 96.800,253.600 96.533,253.600 96.000 C 253.600 95.467,253.867 95.200,254.400 95.200 C 254.933 95.200,255.200 94.933,255.200 94.400 C 255.200 93.867,255.467 93.600,256.000 93.600 C 256.533 93.600,256.800 93.333,256.800 92.800 C 256.800 92.267,257.067 92.000,257.600 92.000 C 258.133 92.000,258.400 91.733,258.400 91.200 C 258.400 90.667,258.667 90.400,259.200 90.400 C 259.733 90.400,260.000 90.133,260.000 89.600 C 260.000 89.067,260.267 88.800,260.800 88.800 C 261.333 88.800,261.600 88.533,261.600 88.000 C 261.600 87.467,261.867 87.200,262.400 87.200 C 262.933 87.200,263.200 86.933,263.200 86.400 C 263.200 85.867,263.467 85.600,264.000 85.600 C 264.533 85.600,264.800 85.333,264.800 84.800 C 264.800 84.267,265.067 84.000,265.600 84.000 C 266.133 84.000,266.400 83.733,266.400 83.200 C 266.400 82.667,266.667 82.400,267.200 82.400 C 267.733 82.400,268.000 82.133,268.000 81.600 C 268.000 81.067,268.267 80.800,268.800 80.800 C 269.333 80.800,269.600 80.533,269.600 80.000 C 269.600 79.467,269.867 79.200,270.400 79.200 C 270.933 79.200,271.200 78.933,271.200 78.400 C 271.200 77.867,271.467 77.600,272.000 77.600 C 272.533 77.600,272.800 77.333,272.800 76.800 C 272.800 76.267,273.067 76.000,273.600 76.000 C 274.133 76.000,274.400 75.733,274.400 75.200 C 274.400 74.667,274.667 74.400,275.200 74.400 C 275.697 74.400,276.000 74.133,276.000 73.696 C 276.000 73.309,276.360 72.768,276.800 72.493 C 277.455 72.084,277.600 71.560,277.600 69.600 C 277.600 67.640,277.455 67.116,276.800 66.707 C 276.360 66.432,276.000 65.891,276.000 65.504 C 276.000 65.067,275.697 64.800,275.200 64.800 C 274.652 64.800,274.400 64.533,274.400 63.953 C 274.400 63.283,274.207 63.144,273.469 63.285 C 272.661 63.439,272.562 63.331,272.726 62.474 C 272.893 61.603,272.797 61.507,271.926 61.674 C 271.055 61.840,270.960 61.745,271.126 60.874 C 271.293 60.003,271.197 59.907,270.326 60.074 C 269.455 60.240,269.360 60.145,269.526 59.274 C 269.693 58.403,269.597 58.307,268.726 58.474 C 267.855 58.640,267.760 58.545,267.926 57.674 C 268.093 56.803,267.997 56.707,267.126 56.874 C 266.255 57.040,266.160 56.945,266.326 56.074 C 266.493 55.203,266.397 55.107,265.526 55.274 C 264.655 55.440,264.560 55.345,264.726 54.474 C 264.893 53.603,264.797 53.507,263.926 53.674 C 263.069 53.838,262.961 53.739,263.115 52.931 C 263.256 52.193,263.117 52.000,262.447 52.000 C 261.867 52.000,261.600 51.748,261.600 51.200 C 261.600 50.624,261.333 50.400,260.649 50.400 C 260.126 50.400,259.476 50.132,259.204 49.804 C 258.932 49.477,258.550 49.307,258.355 49.428 C 258.160 49.549,258.000 49.457,258.000 49.224 C 258.000 48.494,255.792 48.762,254.892 49.600 M328.952 49.381 C 328.829 49.700,328.820 50.109,328.931 50.288 C 329.042 50.468,328.416 50.546,327.541 50.463 C 326.210 50.336,325.914 50.444,325.737 51.119 C 325.621 51.563,325.183 52.016,324.763 52.126 C 324.343 52.235,324.000 52.591,324.000 52.916 C 324.000 53.241,323.640 53.601,323.200 53.716 C 322.760 53.831,322.400 54.191,322.400 54.516 C 322.400 54.841,322.040 55.201,321.600 55.316 C 321.160 55.431,320.800 55.791,320.800 56.116 C 320.800 56.441,320.440 56.801,320.000 56.916 C 319.560 57.031,319.200 57.391,319.200 57.716 C 319.200 58.041,318.840 58.401,318.400 58.516 C 317.960 58.631,317.600 58.991,317.600 59.316 C 317.600 59.641,317.240 60.001,316.800 60.116 C 316.360 60.231,316.000 60.591,316.000 60.916 C 316.000 61.241,315.640 61.601,315.200 61.716 C 314.760 61.831,314.400 62.191,314.400 62.516 C 314.400 62.841,314.040 63.201,313.600 63.316 C 313.160 63.431,312.800 63.791,312.800 64.116 C 312.800 64.441,312.440 64.801,312.000 64.916 C 311.560 65.031,311.200 65.391,311.200 65.716 C 311.200 66.041,310.840 66.401,310.400 66.516 C 309.960 66.631,309.600 66.991,309.600 67.316 C 309.600 67.641,309.240 68.001,308.800 68.116 C 308.360 68.231,308.000 68.591,308.000 68.916 C 308.000 69.241,307.640 69.601,307.200 69.716 C 306.760 69.831,306.400 70.191,306.400 70.516 C 306.400 70.841,306.040 71.201,305.600 71.316 C 305.160 71.431,304.800 71.791,304.800 72.116 C 304.800 72.441,304.440 72.801,304.000 72.916 C 303.560 73.031,303.200 73.391,303.200 73.716 C 303.200 74.041,302.840 74.401,302.400 74.516 C 301.960 74.631,301.600 74.991,301.600 75.316 C 301.600 75.641,301.240 76.001,300.800 76.116 C 300.360 76.231,300.000 76.591,300.000 76.916 C 300.000 77.241,299.640 77.601,299.200 77.716 C 298.760 77.831,298.400 78.191,298.400 78.516 C 298.400 78.841,298.040 79.201,297.600 79.316 C 297.160 79.431,296.800 79.791,296.800 80.116 C 296.800 80.441,296.440 80.801,296.000 80.916 C 295.560 81.031,295.200 81.391,295.200 81.716 C 295.200 82.041,294.840 82.401,294.400 82.516 C 293.960 82.631,293.600 82.991,293.600 83.316 C 293.600 83.641,293.240 84.001,292.800 84.116 C 292.360 84.231,292.000 84.591,292.000 84.916 C 292.000 85.241,291.640 85.601,291.200 85.716 C 290.760 85.831,290.400 86.191,290.400 86.516 C 290.400 86.841,290.040 87.201,289.600 87.316 C 289.160 87.431,288.800 87.791,288.800 88.116 C 288.800 88.441,288.440 88.801,288.000 88.916 C 287.560 89.031,287.200 89.391,287.200 89.716 C 287.200 90.041,286.840 90.401,286.400 90.516 C 285.960 90.631,285.600 90.991,285.600 91.316 C 285.600 91.641,285.240 92.001,284.800 92.116 C 284.360 92.231,284.000 92.591,284.000 92.916 C 284.000 93.241,283.640 93.601,283.200 93.716 C 282.760 93.831,282.400 94.191,282.400 94.516 C 282.400 94.841,282.040 95.201,281.600 95.316 C 281.160 95.431,280.800 95.791,280.800 96.116 C 280.800 96.441,280.440 96.801,280.000 96.916 C 279.560 97.031,279.200 97.391,279.200 97.716 C 279.200 98.041,278.840 98.401,278.400 98.516 C 277.960 98.631,277.600 98.991,277.600 99.316 C 277.600 99.641,277.240 100.001,276.800 100.116 C 276.360 100.231,276.000 100.591,276.000 100.916 C 276.000 101.241,275.640 101.601,275.200 101.716 C 274.760 101.831,274.400 102.191,274.400 102.516 C 274.400 102.841,274.040 103.201,273.600 103.316 C 273.160 103.431,272.800 103.791,272.800 104.116 C 272.800 104.441,272.440 104.801,272.000 104.916 C 271.560 105.031,271.200 105.391,271.200 105.716 C 271.200 106.041,270.840 106.401,270.400 106.516 C 269.960 106.631,269.600 106.991,269.600 107.316 C 269.600 107.641,269.240 108.001,268.800 108.116 C 268.360 108.231,268.000 108.591,268.000 108.916 C 268.000 109.241,267.640 109.601,267.200 109.716 C 266.760 109.831,266.400 110.191,266.400 110.516 C 266.400 110.841,266.040 111.201,265.600 111.316 C 265.160 111.431,264.800 111.791,264.800 112.116 C 264.800 112.441,264.440 112.801,264.000 112.916 C 263.560 113.031,263.200 113.391,263.200 113.716 C 263.200 114.041,262.840 114.401,262.400 114.516 C 261.960 114.631,261.600 114.991,261.600 115.316 C 261.600 115.641,261.240 116.001,260.800 116.116 C 260.360 116.231,260.000 116.591,260.000 116.916 C 260.000 117.241,259.640 117.601,259.200 117.716 C 258.760 117.831,258.400 118.191,258.400 118.516 C 258.400 118.841,258.040 119.201,257.600 119.316 C 257.160 119.431,256.800 119.791,256.800 120.116 C 256.800 120.441,256.440 120.801,256.000 120.916 C 255.560 121.031,255.200 121.391,255.200 121.716 C 255.200 122.041,254.840 122.401,254.400 122.516 C 253.960 122.631,253.600 122.991,253.600 123.316 C 253.600 123.641,253.240 124.001,252.800 124.116 C 252.360 124.231,252.000 124.591,252.000 124.916 C 252.000 125.241,251.640 125.601,251.200 125.716 C 250.760 125.831,250.400 126.191,250.400 126.516 C 250.400 126.841,250.040 127.201,249.600 127.316 C 249.160 127.431,248.800 127.791,248.800 128.116 C 248.800 128.441,248.440 128.801,248.000 128.916 C 247.560 129.031,247.200 129.391,247.200 129.716 C 247.200 130.041,246.840 130.401,246.400 130.516 C 245.960 130.631,245.600 130.991,245.600 131.316 C 245.600 131.641,245.240 132.001,244.800 132.116 C 244.360 132.231,244.000 132.591,244.000 132.916 C 244.000 133.241,243.640 133.601,243.200 133.716 C 242.760 133.831,242.400 134.191,242.400 134.516 C 242.400 134.841,242.040 135.201,241.600 135.316 C 241.160 135.431,240.800 135.791,240.800 136.116 C 240.800 136.441,240.440 136.801,240.000 136.916 C 239.560 137.031,239.200 137.391,239.200 137.716 C 239.200 138.041,238.840 138.401,238.400 138.516 C 237.960 138.631,237.600 138.991,237.600 139.316 C 237.600 139.641,237.240 140.001,236.800 140.116 C 236.360 140.231,236.000 140.591,236.000 140.916 C 236.000 141.241,235.640 141.601,235.200 141.716 C 234.760 141.831,234.400 142.191,234.400 142.516 C 234.400 142.841,234.040 143.201,233.600 143.316 C 233.160 143.431,232.800 143.791,232.800 144.116 C 232.800 144.441,232.440 144.801,232.000 144.916 C 231.560 145.031,231.200 145.391,231.200 145.716 C 231.200 146.041,230.840 146.401,230.400 146.516 C 229.960 146.631,229.600 146.991,229.600 147.316 C 229.600 147.641,229.240 148.001,228.800 148.116 C 228.360 148.231,228.000 148.591,228.000 148.916 C 228.000 149.241,227.640 149.601,227.200 149.716 C 226.760 149.831,226.400 150.191,226.400 150.516 C 226.400 150.841,226.040 151.201,225.600 151.316 C 225.160 151.431,224.800 151.791,224.800 152.116 C 224.800 152.441,224.440 152.801,224.000 152.916 C 223.560 153.031,223.200 153.391,223.200 153.716 C 223.200 154.041,222.840 154.401,222.400 154.516 C 221.960 154.631,221.600 154.991,221.600 155.316 C 221.600 155.641,221.240 156.001,220.800 156.116 C 220.360 156.231,220.000 156.591,220.000 156.916 C 220.000 157.241,219.640 157.601,219.200 157.716 C 218.760 157.831,218.400 158.191,218.400 158.516 C 218.400 158.841,218.040 159.201,217.600 159.316 C 217.160 159.431,216.800 159.791,216.800 160.116 C 216.800 160.441,216.440 160.801,216.000 160.916 C 215.560 161.031,215.200 161.391,215.200 161.716 C 215.200 162.041,214.840 162.401,214.400 162.516 C 213.960 162.631,213.600 162.991,213.600 163.316 C 213.600 163.641,213.240 164.001,212.800 164.116 C 212.360 164.231,212.000 164.591,212.000 164.916 C 212.000 165.241,211.640 165.601,211.200 165.716 C 210.760 165.831,210.400 166.191,210.400 166.516 C 210.400 166.841,210.040 167.201,209.600 167.316 C 209.160 167.431,208.800 167.791,208.800 168.116 C 208.800 168.441,208.440 168.801,208.000 168.916 C 207.560 169.031,207.200 169.391,207.200 169.716 C 207.200 170.041,206.840 170.401,206.400 170.516 C 205.960 170.631,205.600 170.991,205.600 171.316 C 205.600 171.641,205.240 172.001,204.800 172.116 C 204.360 172.231,204.000 172.591,204.000 172.916 C 204.000 173.241,203.640 173.601,203.200 173.716 C 202.760 173.831,202.400 174.191,202.400 174.516 C 202.400 174.841,202.040 175.201,201.600 175.316 C 201.160 175.431,200.800 175.791,200.800 176.116 C 200.800 176.441,200.440 176.801,200.000 176.916 C 199.560 177.031,199.200 177.391,199.200 177.716 C 199.200 178.041,198.840 178.401,198.400 178.516 C 197.960 178.631,197.600 178.991,197.600 179.316 C 197.600 179.641,197.240 180.001,196.800 180.116 C 196.360 180.231,196.000 180.591,196.000 180.916 C 196.000 181.241,195.640 181.601,195.200 181.716 C 194.760 181.831,194.400 182.191,194.400 182.516 C 194.400 182.841,194.040 183.201,193.600 183.316 C 193.160 183.431,192.800 183.812,192.800 184.163 C 192.800 184.533,192.465 184.800,192.000 184.800 C 191.467 184.800,191.200 184.533,191.200 184.000 C 191.200 183.467,190.933 183.200,190.400 183.200 C 189.867 183.200,189.600 182.933,189.600 182.400 C 189.600 181.867,189.333 181.600,188.800 181.600 C 188.267 181.600,188.000 181.333,188.000 180.800 C 188.000 180.267,187.733 180.000,187.200 180.000 C 186.652 180.000,186.400 179.733,186.400 179.153 C 186.400 178.483,186.207 178.344,185.469 178.485 C 184.661 178.639,184.562 178.531,184.726 177.674 C 184.893 176.803,184.797 176.707,183.926 176.874 C 183.055 177.040,182.960 176.945,183.126 176.074 C 183.293 175.203,183.197 175.107,182.326 175.274 C 181.469 175.438,181.361 175.339,181.515 174.531 C 181.656 173.793,181.517 173.600,180.847 173.600 C 180.267 173.600,180.000 173.348,180.000 172.800 C 180.000 172.267,179.733 172.000,179.200 172.000 C 178.667 172.000,178.400 171.733,178.400 171.200 C 178.400 170.667,178.133 170.400,177.600 170.400 C 177.067 170.400,176.800 170.133,176.800 169.600 C 176.800 169.067,176.533 168.800,176.000 168.800 C 175.467 168.800,175.200 168.533,175.200 168.000 C 175.200 167.467,174.933 167.200,174.400 167.200 C 173.867 167.200,173.600 166.933,173.600 166.400 C 173.600 165.867,173.333 165.600,172.800 165.600 C 172.267 165.600,172.000 165.333,172.000 164.800 C 172.000 164.267,171.733 164.000,171.200 164.000 C 170.667 164.000,170.400 163.733,170.400 163.200 C 170.400 162.667,170.133 162.400,169.600 162.400 C 169.067 162.400,168.800 162.133,168.800 161.600 C 168.800 161.067,168.533 160.800,168.000 160.800 C 167.467 160.800,167.200 160.533,167.200 160.000 C 167.200 159.467,166.933 159.200,166.400 159.200 C 165.867 159.200,165.600 158.933,165.600 158.400 C 165.600 157.867,165.333 157.600,164.800 157.600 C 164.267 157.600,164.000 157.333,164.000 156.800 C 164.000 156.267,163.733 156.000,163.200 156.000 C 162.667 156.000,162.400 155.733,162.400 155.200 C 162.400 154.667,162.133 154.400,161.600 154.400 C 161.067 154.400,160.800 154.133,160.800 153.600 C 160.800 153.067,160.533 152.800,160.000 152.800 C 159.467 152.800,159.200 152.533,159.200 152.000 C 159.200 151.467,158.933 151.200,158.400 151.200 C 157.867 151.200,157.600 150.933,157.600 150.400 C 157.600 149.867,157.333 149.600,156.800 149.600 C 156.267 149.600,156.000 149.333,156.000 148.800 C 156.000 148.267,155.733 148.000,155.200 148.000 C 154.667 148.000,154.400 147.733,154.400 147.200 C 154.400 146.667,154.133 146.400,153.600 146.400 C 153.067 146.400,152.800 146.133,152.800 145.600 C 152.800 145.067,152.533 144.800,152.000 144.800 C 151.467 144.800,151.200 144.533,151.200 144.000 C 151.200 143.467,150.933 143.200,150.400 143.200 C 149.867 143.200,149.600 142.933,149.600 142.400 C 149.600 141.867,149.333 141.600,148.800 141.600 C 148.267 141.600,148.000 141.333,148.000 140.800 C 148.000 140.267,147.733 140.000,147.200 140.000 C 146.667 140.000,146.400 139.733,146.400 139.200 C 146.400 138.667,146.133 138.400,145.600 138.400 C 145.067 138.400,144.800 138.133,144.800 137.600 C 144.800 137.067,144.533 136.800,144.000 136.800 C 143.467 136.800,143.200 136.533,143.200 136.000 C 143.200 135.483,142.933 135.200,142.447 135.200 C 142.030 135.200,141.600 134.843,141.484 134.400 C 141.294 133.673,140.938 133.600,137.600 133.600 C 134.262 133.600,133.906 133.673,133.716 134.400 C 133.600 134.843,133.170 135.200,132.753 135.200 C 132.267 135.200,132.000 135.483,132.000 136.000 C 132.000 136.533,131.733 136.800,131.200 136.800 C 130.667 136.800,130.400 137.067,130.400 137.600 C 130.400 138.133,130.133 138.400,129.600 138.400 C 129.067 138.400,128.800 138.667,128.800 139.200 C 128.800 139.733,128.533 140.000,128.000 140.000 C 127.467 140.000,127.200 140.267,127.200 140.800 C 127.200 141.333,126.933 141.600,126.400 141.600 C 125.867 141.600,125.600 141.867,125.600 142.400 C 125.600 142.933,125.333 143.200,124.800 143.200 C 124.267 143.200,124.000 143.467,124.000 144.000 C 124.000 144.533,123.733 144.800,123.200 144.800 C 122.667 144.800,122.400 145.067,122.400 145.600 C 122.400 146.133,122.133 146.400,121.600 146.400 C 121.067 146.400,120.800 146.667,120.800 147.200 C 120.800 147.748,120.533 148.000,119.953 148.000 C 119.283 148.000,119.144 148.193,119.285 148.931 C 119.437 149.726,119.326 149.837,118.531 149.685 C 117.606 149.508,117.600 149.532,117.600 153.553 C 117.600 157.333,117.653 157.600,118.400 157.600 C 118.933 157.600,119.200 157.867,119.200 158.400 C 119.200 158.844,119.467 159.200,119.800 159.200 C 120.130 159.200,120.400 159.009,120.400 158.776 C 120.400 158.543,120.581 158.464,120.801 158.601 C 121.022 158.737,121.086 159.314,120.944 159.882 C 120.703 160.841,120.762 160.896,121.752 160.648 C 122.750 160.397,122.803 160.450,122.552 161.448 C 122.302 162.445,122.355 162.498,123.352 162.248 C 124.350 161.997,124.403 162.050,124.152 163.048 C 123.902 164.045,123.955 164.098,124.952 163.848 C 125.950 163.597,126.003 163.650,125.752 164.648 C 125.502 165.645,125.555 165.698,126.552 165.448 C 127.550 165.197,127.603 165.250,127.352 166.248 C 127.102 167.245,127.155 167.298,128.152 167.048 C 129.150 166.797,129.203 166.850,128.952 167.848 C 128.702 168.845,128.755 168.898,129.752 168.648 C 130.750 168.397,130.803 168.450,130.552 169.448 C 130.302 170.445,130.355 170.498,131.352 170.248 C 132.350 169.997,132.403 170.050,132.152 171.048 C 131.902 172.045,131.955 172.098,132.952 171.848 C 133.950 171.597,134.003 171.650,133.752 172.648 C 133.502 173.645,133.555 173.698,134.552 173.448 C 135.550 173.197,135.603 173.250,135.352 174.248 C 135.102 175.245,135.155 175.298,136.152 175.048 C 137.150 174.797,137.203 174.850,136.952 175.848 C 136.702 176.845,136.755 176.898,137.752 176.648 C 138.750 176.397,138.803 176.450,138.552 177.448 C 138.302 178.445,138.355 178.498,139.352 178.248 C 140.350 177.997,140.403 178.050,140.152 179.048 C 139.902 180.045,139.955 180.098,140.952 179.848 C 141.950 179.597,142.003 179.650,141.752 180.648 C 141.502 181.645,141.555 181.698,142.552 181.448 C 143.550 181.197,143.603 181.250,143.352 182.248 C 143.102 183.245,143.155 183.298,144.152 183.048 C 145.150 182.797,145.203 182.850,144.952 183.848 C 144.702 184.845,144.755 184.898,145.752 184.648 C 146.750 184.397,146.803 184.450,146.552 185.448 C 146.302 186.445,146.355 186.498,147.352 186.248 C 148.350 185.997,148.403 186.050,148.152 187.048 C 147.902 188.045,147.955 188.098,148.952 187.848 C 149.950 187.597,150.003 187.650,149.752 188.648 C 149.502 189.645,149.555 189.698,150.552 189.448 C 151.550 189.197,151.603 189.250,151.352 190.248 C 151.102 191.245,151.155 191.298,152.152 191.048 C 153.150 190.797,153.203 190.850,152.952 191.848 C 152.702 192.845,152.755 192.898,153.752 192.648 C 154.750 192.397,154.803 192.450,154.552 193.448 C 154.302 194.445,154.355 194.498,155.352 194.248 C 156.350 193.997,156.403 194.050,156.152 195.048 C 155.902 196.045,155.955 196.098,156.952 195.848 C 157.950 195.597,158.003 195.650,157.752 196.648 C 157.502 197.645,157.555 197.698,158.552 197.448 C 159.550 197.197,159.603 197.250,159.352 198.248 C 159.102 199.245,159.155 199.298,160.152 199.048 C 161.150 198.797,161.203 198.850,160.952 199.848 C 160.702 200.845,160.755 200.898,161.752 200.648 C 162.750 200.397,162.803 200.450,162.552 201.448 C 162.302 202.445,162.355 202.498,163.352 202.248 C 164.350 201.997,164.403 202.050,164.152 203.048 C 163.902 204.045,163.955 204.098,164.952 203.848 C 165.950 203.597,166.003 203.650,165.752 204.648 C 165.502 205.645,165.555 205.698,166.552 205.448 C 167.550 205.197,167.603 205.250,167.352 206.248 C 167.102 207.245,167.155 207.298,168.152 207.048 C 169.150 206.797,169.203 206.850,168.952 207.848 C 168.702 208.845,168.755 208.898,169.752 208.648 C 170.750 208.397,170.803 208.450,170.552 209.448 C 170.302 210.445,170.355 210.498,171.352 210.248 C 172.350 209.997,172.403 210.050,172.152 211.048 C 171.902 212.045,171.955 212.098,172.952 211.848 C 173.950 211.597,174.003 211.650,173.752 212.648 C 173.502 213.645,173.555 213.698,174.552 213.448 C 175.550 213.197,175.603 213.250,175.352 214.248 C 175.102 215.245,175.155 215.298,176.152 215.048 C 177.150 214.797,177.203 214.850,176.952 215.848 C 176.702 216.845,176.755 216.898,177.752 216.648 C 178.750 216.397,178.803 216.450,178.552 217.448 C 178.302 218.445,178.355 218.498,179.352 218.248 C 180.350 217.997,180.403 218.050,180.152 219.048 C 179.902 220.045,179.955 220.098,180.952 219.848 C 181.950 219.597,182.003 219.650,181.752 220.648 C 181.502 221.645,181.555 221.698,182.552 221.448 C 183.550 221.197,183.603 221.250,183.352 222.248 C 183.102 223.245,183.155 223.298,184.152 223.048 C 185.150 222.797,185.203 222.850,184.952 223.848 C 184.702 224.845,184.755 224.898,185.752 224.648 C 186.741 224.400,186.801 224.456,186.563 225.404 C 186.318 226.383,186.372 226.422,187.766 226.268 C 189.118 226.119,189.181 226.158,188.613 226.785 C 187.606 227.898,187.816 227.964,192.387 227.968 C 196.138 227.971,196.849 227.869,197.287 227.260 C 197.569 226.868,198.115 226.430,198.500 226.286 C 198.885 226.143,199.200 225.770,199.200 225.459 C 199.200 225.148,199.560 224.799,200.000 224.684 C 200.440 224.569,200.800 224.209,200.800 223.884 C 200.800 223.559,201.160 223.199,201.600 223.084 C 202.040 222.969,202.400 222.609,202.400 222.284 C 202.400 221.959,202.760 221.599,203.200 221.484 C 203.640 221.369,204.000 221.009,204.000 220.684 C 204.000 220.359,204.360 219.999,204.800 219.884 C 205.240 219.769,205.600 219.409,205.600 219.084 C 205.600 218.759,205.960 218.399,206.400 218.284 C 206.840 218.169,207.200 217.809,207.200 217.484 C 207.200 217.159,207.560 216.799,208.000 216.684 C 208.440 216.569,208.800 216.209,208.800 215.884 C 208.800 215.559,209.160 215.199,209.600 215.084 C 210.040 214.969,210.400 214.609,210.400 214.284 C 210.400 213.959,210.760 213.599,211.200 213.484 C 211.640 213.369,212.000 213.009,212.000 212.684 C 212.000 212.359,212.360 211.999,212.800 211.884 C 213.240 211.769,213.600 211.409,213.600 211.084 C 213.600 210.759,213.960 210.399,214.400 210.284 C 214.840 210.169,215.200 209.809,215.200 209.484 C 215.200 209.159,215.560 208.799,216.000 208.684 C 216.440 208.569,216.800 208.209,216.800 207.884 C 216.800 207.559,217.160 207.199,217.600 207.084 C 218.040 206.969,218.400 206.609,218.400 206.284 C 218.400 205.959,218.760 205.599,219.200 205.484 C 219.640 205.369,220.000 205.009,220.000 204.684 C 220.000 204.359,220.360 203.999,220.800 203.884 C 221.240 203.769,221.600 203.409,221.600 203.084 C 221.600 202.759,221.960 202.399,222.400 202.284 C 222.840 202.169,223.200 201.809,223.200 201.484 C 223.200 201.159,223.560 200.799,224.000 200.684 C 224.440 200.569,224.800 200.209,224.800 199.884 C 224.800 199.559,225.160 199.199,225.600 199.084 C 226.040 198.969,226.400 198.609,226.400 198.284 C 226.400 197.959,226.760 197.599,227.200 197.484 C 227.640 197.369,228.000 197.009,228.000 196.684 C 228.000 196.359,228.360 195.999,228.800 195.884 C 229.240 195.769,229.600 195.388,229.600 195.037 C 229.600 194.687,229.887 194.400,230.237 194.400 C 230.588 194.400,230.969 194.040,231.084 193.600 C 231.199 193.160,231.559 192.800,231.884 192.800 C 232.209 192.800,232.569 192.440,232.684 192.000 C 232.799 191.560,233.159 191.200,233.484 191.200 C 233.809 191.200,234.169 190.840,234.284 190.400 C 234.399 189.960,234.759 189.600,235.084 189.600 C 235.409 189.600,235.769 189.240,235.884 188.800 C 235.999 188.360,236.359 188.000,236.684 188.000 C 237.009 188.000,237.369 187.640,237.484 187.200 C 237.599 186.760,237.959 186.400,238.284 186.400 C 238.609 186.400,238.969 186.040,239.084 185.600 C 239.199 185.160,239.559 184.800,239.884 184.800 C 240.209 184.800,240.569 184.440,240.684 184.000 C 240.799 183.560,241.159 183.200,241.484 183.200 C 241.809 183.200,242.169 182.840,242.284 182.400 C 242.399 181.960,242.759 181.600,243.084 181.600 C 243.409 181.600,243.769 181.240,243.884 180.800 C 243.999 180.360,244.359 180.000,244.684 180.000 C 245.009 180.000,245.369 179.640,245.484 179.200 C 245.599 178.760,245.959 178.400,246.284 178.400 C 246.609 178.400,246.969 178.040,247.084 177.600 C 247.199 177.160,247.559 176.800,247.884 176.800 C 248.209 176.800,248.569 176.440,248.684 176.000 C 248.799 175.560,249.159 175.200,249.484 175.200 C 249.809 175.200,250.169 174.840,250.284 174.400 C 250.399 173.960,250.759 173.600,251.084 173.600 C 251.409 173.600,251.769 173.240,251.884 172.800 C 251.999 172.360,252.359 172.000,252.684 172.000 C 253.009 172.000,253.369 171.640,253.484 171.200 C 253.599 170.760,253.959 170.400,254.284 170.400 C 254.609 170.400,254.969 170.040,255.084 169.600 C 255.199 169.160,255.559 168.800,255.884 168.800 C 256.209 168.800,256.569 168.440,256.684 168.000 C 256.799 167.560,257.159 167.200,257.484 167.200 C 257.809 167.200,258.169 166.840,258.284 166.400 C 258.399 165.960,258.759 165.600,259.084 165.600 C 259.409 165.600,259.769 165.240,259.884 164.800 C 259.999 164.360,260.359 164.000,260.684 164.000 C 261.009 164.000,261.369 163.640,261.484 163.200 C 261.599 162.760,261.959 162.400,262.284 162.400 C 262.609 162.400,262.969 162.040,263.084 161.600 C 263.199 161.160,263.559 160.800,263.884 160.800 C 264.209 160.800,264.569 160.440,264.684 160.000 C 264.799 159.560,265.159 159.200,265.484 159.200 C 265.809 159.200,266.169 158.840,266.284 158.400 C 266.399 157.960,266.759 157.600,267.084 157.600 C 267.409 157.600,267.769 157.240,267.884 156.800 C 267.999 156.360,268.348 156.000,268.659 156.000 C 268.970 156.000,269.336 155.712,269.471 155.360 C 269.787 154.536,271.336 152.987,272.160 152.671 C 272.512 152.536,272.800 152.248,272.800 152.031 C 272.800 151.521,274.532 149.788,275.360 149.471 C 275.712 149.336,276.000 148.970,276.000 148.659 C 276.000 148.348,276.360 147.999,276.800 147.884 C 277.240 147.769,277.600 147.409,277.600 147.084 C 277.600 146.759,277.960 146.399,278.400 146.284 C 278.840 146.169,279.200 145.809,279.200 145.484 C 279.200 145.159,279.560 144.799,280.000 144.684 C 280.440 144.569,280.800 144.209,280.800 143.884 C 280.800 143.559,281.160 143.199,281.600 143.084 C 282.040 142.969,282.400 142.588,282.400 142.237 C 282.400 141.887,282.676 141.600,283.013 141.600 C 283.349 141.600,283.729 141.328,283.857 140.995 C 284.159 140.208,290.608 133.759,291.395 133.457 C 291.728 133.329,292.000 132.970,292.000 132.659 C 292.000 132.348,292.360 131.999,292.800 131.884 C 293.240 131.769,293.600 131.409,293.600 131.084 C 293.600 130.759,293.960 130.399,294.400 130.284 C 294.840 130.169,295.200 129.809,295.200 129.484 C 295.200 129.159,295.560 128.799,296.000 128.684 C 296.440 128.569,296.800 128.209,296.800 127.884 C 296.800 127.559,297.160 127.199,297.600 127.084 C 298.040 126.969,298.400 126.609,298.400 126.284 C 298.400 125.959,298.760 125.599,299.200 125.484 C 299.640 125.369,300.000 125.009,300.000 124.684 C 300.000 124.359,300.360 123.999,300.800 123.884 C 301.240 123.769,301.600 123.409,301.600 123.084 C 301.600 122.759,301.960 122.399,302.400 122.284 C 302.840 122.169,303.200 121.788,303.200 121.437 C 303.200 121.087,303.487 120.800,303.837 120.800 C 304.188 120.800,304.569 120.440,304.684 120.000 C 304.799 119.560,305.159 119.200,305.484 119.200 C 305.809 119.200,306.169 118.840,306.284 118.400 C 306.399 117.960,306.759 117.600,307.084 117.600 C 307.409 117.600,307.769 117.240,307.884 116.800 C 307.999 116.360,308.359 116.000,308.684 116.000 C 309.009 116.000,309.369 115.640,309.484 115.200 C 309.599 114.760,309.959 114.400,310.284 114.400 C 310.609 114.400,310.969 114.040,311.084 113.600 C 311.199 113.160,311.559 112.800,311.884 112.800 C 312.209 112.800,312.569 112.440,312.684 112.000 C 312.799 111.560,313.159 111.200,313.484 111.200 C 313.809 111.200,314.169 110.840,314.284 110.400 C 314.399 109.960,314.759 109.600,315.084 109.600 C 315.409 109.600,315.769 109.240,315.884 108.800 C 315.999 108.360,316.359 108.000,316.684 108.000 C 317.009 108.000,317.369 107.640,317.484 107.200 C 317.599 106.760,317.959 106.400,318.284 106.400 C 318.609 106.400,318.969 106.040,319.084 105.600 C 319.199 105.160,319.559 104.800,319.884 104.800 C 320.209 104.800,320.569 104.440,320.684 104.000 C 320.799 103.560,321.159 103.200,321.484 103.200 C 321.809 103.200,322.169 102.840,322.284 102.400 C 322.399 101.960,322.759 101.600,323.084 101.600 C 323.409 101.600,323.765 101.257,323.874 100.837 C 323.984 100.417,324.417 99.984,324.837 99.874 C 325.257 99.765,325.600 99.388,325.600 99.037 C 325.600 98.687,325.876 98.400,326.213 98.400 C 326.549 98.400,326.929 98.129,327.056 97.798 C 327.183 97.467,332.307 92.183,338.443 86.056 C 344.580 79.928,349.600 74.799,349.600 74.657 C 349.600 74.516,349.960 74.040,350.400 73.600 C 351.063 72.937,351.200 72.267,351.200 69.696 C 351.200 67.026,351.088 66.523,350.400 66.093 C 349.960 65.818,349.600 65.346,349.600 65.043 C 349.600 64.447,342.136 56.800,341.554 56.800 C 341.359 56.800,341.200 56.551,341.200 56.247 C 341.200 55.942,340.840 55.599,340.400 55.484 C 339.960 55.369,339.600 55.009,339.600 54.684 C 339.600 54.359,339.240 53.999,338.800 53.884 C 338.360 53.769,338.000 53.409,338.000 53.084 C 338.000 52.759,337.640 52.399,337.200 52.284 C 336.760 52.169,336.400 51.802,336.400 51.469 C 336.400 51.111,335.869 50.747,335.100 50.578 C 334.385 50.421,333.565 49.957,333.277 49.546 C 332.616 48.603,329.299 48.476,328.952 49.381 M257.200 50.024 C 257.200 50.257,257.408 50.319,257.662 50.162 C 257.941 49.989,258.015 50.052,257.849 50.321 C 257.698 50.565,257.310 50.664,256.987 50.540 C 256.324 50.285,256.188 49.600,256.800 49.600 C 257.020 49.600,257.200 49.791,257.200 50.024 M259.200 50.400 C 259.538 51.032,259.504 51.200,259.039 51.200 C 258.696 51.200,258.475 50.865,258.510 50.400 C 258.543 49.960,258.616 49.600,258.671 49.600 C 258.726 49.600,258.965 49.960,259.200 50.400 M325.125 53.500 C 324.561 54.105,324.192 54.854,324.304 55.164 C 324.441 55.541,324.309 55.651,323.903 55.495 C 323.116 55.193,322.396 55.924,322.701 56.718 C 322.870 57.160,322.760 57.270,322.318 57.101 C 321.518 56.794,320.794 57.518,321.101 58.318 C 321.270 58.760,321.160 58.870,320.718 58.701 C 319.918 58.394,319.194 59.118,319.501 59.918 C 319.670 60.360,319.560 60.470,319.118 60.301 C 318.318 59.994,317.594 60.718,317.901 61.518 C 318.070 61.960,317.960 62.070,317.518 61.901 C 316.718 61.594,315.994 62.318,316.301 63.118 C 316.470 63.560,316.360 63.670,315.918 63.501 C 315.118 63.194,314.394 63.918,314.701 64.718 C 314.869 65.157,314.760 65.270,314.328 65.104 C 313.526 64.797,304.798 73.553,305.100 74.364 C 305.240 74.742,305.110 74.851,304.703 74.695 C 303.916 74.393,303.196 75.124,303.501 75.918 C 303.670 76.360,303.560 76.470,303.118 76.301 C 302.318 75.994,301.594 76.718,301.901 77.518 C 302.070 77.960,301.960 78.070,301.518 77.901 C 300.718 77.594,299.994 78.318,300.301 79.118 C 300.470 79.560,300.360 79.670,299.918 79.501 C 299.118 79.194,298.394 79.918,298.701 80.718 C 298.870 81.160,298.760 81.270,298.318 81.101 C 297.518 80.794,296.794 81.518,297.101 82.318 C 297.270 82.760,297.160 82.870,296.718 82.701 C 295.918 82.394,295.194 83.118,295.501 83.918 C 295.670 84.360,295.560 84.470,295.118 84.301 C 294.318 83.994,293.594 84.718,293.901 85.518 C 294.070 85.960,293.960 86.070,293.518 85.901 C 292.718 85.594,291.994 86.318,292.301 87.118 C 292.470 87.560,292.360 87.670,291.918 87.501 C 291.118 87.194,290.394 87.918,290.701 88.718 C 290.870 89.160,290.760 89.270,290.318 89.101 C 289.518 88.794,288.794 89.518,289.101 90.318 C 289.270 90.760,289.160 90.870,288.718 90.701 C 287.918 90.394,287.194 91.118,287.501 91.918 C 287.670 92.360,287.560 92.470,287.118 92.301 C 286.318 91.994,285.594 92.718,285.901 93.518 C 286.070 93.960,285.960 94.070,285.518 93.901 C 284.718 93.594,283.994 94.318,284.301 95.118 C 284.470 95.560,284.360 95.670,283.918 95.501 C 283.118 95.194,282.394 95.918,282.701 96.718 C 282.870 97.160,282.760 97.270,282.318 97.101 C 281.518 96.794,280.794 97.518,281.101 98.318 C 281.270 98.760,281.160 98.870,280.718 98.701 C 279.959 98.410,279.188 99.103,279.466 99.826 C 279.598 100.171,279.377 100.333,278.834 100.293 C 278.375 100.258,278.000 100.200,278.000 100.164 C 278.000 99.974,325.734 52.400,325.924 52.400 C 326.048 52.400,325.688 52.895,325.125 53.500 M59.693 134.400 C 59.418 134.840,58.960 135.200,58.675 135.200 C 57.640 135.200,44.000 148.985,44.000 150.032 C 44.000 150.574,43.645 151.229,43.200 151.507 C 42.618 151.871,42.400 152.440,42.400 153.600 C 42.400 154.760,42.618 155.329,43.200 155.693 C 43.742 156.031,44.000 156.626,44.000 157.534 C 44.000 158.517,44.204 158.928,44.763 159.074 C 45.183 159.184,45.616 159.617,45.726 160.037 C 45.835 160.457,46.191 160.800,46.516 160.800 C 46.841 160.800,47.201 161.160,47.316 161.600 C 47.431 162.040,47.791 162.400,48.116 162.400 C 48.441 162.400,48.801 162.760,48.916 163.200 C 49.031 163.640,49.391 164.000,49.716 164.000 C 50.041 164.000,50.401 164.360,50.516 164.800 C 50.631 165.240,50.991 165.600,51.316 165.600 C 51.641 165.600,52.001 165.960,52.116 166.400 C 52.231 166.840,52.591 167.200,52.916 167.200 C 53.241 167.200,53.601 167.560,53.716 168.000 C 53.831 168.440,54.191 168.800,54.516 168.800 C 54.841 168.800,55.201 169.160,55.316 169.600 C 55.431 170.040,55.812 170.400,56.163 170.400 C 56.513 170.400,56.800 170.687,56.800 171.037 C 56.800 171.388,57.160 171.769,57.600 171.884 C 58.040 171.999,58.400 172.359,58.400 172.684 C 58.400 173.009,58.760 173.369,59.200 173.484 C 59.640 173.599,60.000 173.959,60.000 174.284 C 60.000 174.609,60.360 174.969,60.800 175.084 C 61.240 175.199,61.600 175.559,61.600 175.884 C 61.600 176.209,61.960 176.569,62.400 176.684 C 62.840 176.799,63.200 177.159,63.200 177.484 C 63.200 177.809,63.560 178.169,64.000 178.284 C 64.440 178.399,64.800 178.759,64.800 179.084 C 64.800 179.409,65.143 179.765,65.563 179.874 C 65.983 179.984,66.416 180.417,66.526 180.837 C 66.635 181.257,67.012 181.600,67.363 181.600 C 67.713 181.600,68.000 181.887,68.000 182.237 C 68.000 182.588,68.360 182.969,68.800 183.084 C 69.240 183.199,69.600 183.559,69.600 183.884 C 69.600 184.209,69.943 184.565,70.363 184.674 C 70.783 184.784,71.216 185.217,71.326 185.637 C 71.435 186.057,71.791 186.400,72.116 186.400 C 72.441 186.400,72.801 186.760,72.916 187.200 C 73.031 187.640,73.391 188.000,73.716 188.000 C 74.041 188.000,74.401 188.360,74.516 188.800 C 74.631 189.240,74.991 189.600,75.316 189.600 C 75.641 189.600,76.001 189.960,76.116 190.400 C 76.231 190.840,76.591 191.200,76.916 191.200 C 77.241 191.200,77.601 191.560,77.716 192.000 C 77.831 192.440,78.191 192.800,78.516 192.800 C 78.841 192.800,79.201 193.160,79.316 193.600 C 79.431 194.040,79.791 194.400,80.116 194.400 C 80.441 194.400,80.801 194.760,80.916 195.200 C 81.031 195.640,81.391 196.000,81.716 196.000 C 82.041 196.000,82.401 196.360,82.516 196.800 C 82.631 197.240,82.991 197.600,83.316 197.600 C 83.641 197.600,84.001 197.960,84.116 198.400 C 84.231 198.840,84.591 199.200,84.916 199.200 C 85.241 199.200,85.601 199.560,85.716 200.000 C 85.831 200.440,86.191 200.800,86.516 200.800 C 86.841 200.800,87.201 201.160,87.316 201.600 C 87.431 202.040,87.791 202.400,88.116 202.400 C 88.441 202.400,88.801 202.760,88.916 203.200 C 89.031 203.640,89.391 204.000,89.716 204.000 C 90.041 204.000,90.401 204.360,90.516 204.800 C 90.631 205.240,91.012 205.600,91.363 205.600 C 91.713 205.600,92.000 205.887,92.000 206.237 C 92.000 206.588,92.360 206.969,92.800 207.084 C 93.240 207.199,93.600 207.559,93.600 207.884 C 93.600 208.209,93.960 208.569,94.400 208.684 C 94.840 208.799,95.200 209.159,95.200 209.484 C 95.200 209.809,95.560 210.169,96.000 210.284 C 96.440 210.399,96.800 210.759,96.800 211.084 C 96.800 211.409,97.160 211.769,97.600 211.884 C 98.040 211.999,98.400 212.359,98.400 212.684 C 98.400 213.009,98.760 213.369,99.200 213.484 C 99.640 213.599,100.000 213.959,100.000 214.284 C 100.000 214.609,100.360 214.969,100.800 215.084 C 101.240 215.199,101.600 215.559,101.600 215.884 C 101.600 216.209,101.960 216.569,102.400 216.684 C 102.840 216.799,103.200 217.159,103.200 217.484 C 103.200 217.809,103.560 218.169,104.000 218.284 C 104.440 218.399,104.800 218.759,104.800 219.084 C 104.800 219.409,105.160 219.769,105.600 219.884 C 106.040 219.999,106.400 220.359,106.400 220.684 C 106.400 221.009,106.760 221.369,107.200 221.484 C 107.640 221.599,108.000 221.959,108.000 222.284 C 108.000 222.609,108.360 222.969,108.800 223.084 C 109.240 223.199,109.600 223.559,109.600 223.884 C 109.600 224.209,109.960 224.569,110.400 224.684 C 110.840 224.799,111.200 225.159,111.200 225.484 C 111.200 225.809,111.543 226.165,111.963 226.274 C 112.383 226.384,112.812 226.804,112.918 227.208 C 113.220 228.365,122.400 228.329,122.400 227.171 C 122.400 226.667,122.677 226.400,123.200 226.400 C 123.733 226.400,124.000 226.133,124.000 225.600 C 124.000 225.067,124.267 224.800,124.800 224.800 C 125.333 224.800,125.600 224.533,125.600 224.000 C 125.600 223.467,125.867 223.200,126.400 223.200 C 126.933 223.200,127.200 222.933,127.200 222.400 C 127.200 221.867,127.467 221.600,128.000 221.600 C 128.533 221.600,128.800 221.333,128.800 220.800 C 128.800 220.267,129.067 220.000,129.600 220.000 C 130.133 220.000,130.400 219.733,130.400 219.200 C 130.400 218.667,130.667 218.400,131.200 218.400 C 131.733 218.400,132.000 218.133,132.000 217.600 C 132.000 217.067,132.267 216.800,132.800 216.800 C 133.333 216.800,133.600 216.533,133.600 216.000 C 133.600 215.467,133.867 215.200,134.400 215.200 C 134.933 215.200,135.200 214.933,135.200 214.400 C 135.200 213.867,135.467 213.600,136.000 213.600 C 136.517 213.600,136.800 213.333,136.800 212.847 C 136.800 212.430,137.157 212.000,137.600 211.884 C 138.311 211.698,138.400 211.338,138.400 208.637 C 138.400 206.133,138.260 205.460,137.600 204.800 C 137.160 204.360,136.800 203.713,136.800 203.363 C 136.800 203.012,136.457 202.635,136.037 202.526 C 135.617 202.416,135.184 201.983,135.074 201.563 C 134.965 201.143,134.609 200.800,134.284 200.800 C 133.959 200.800,133.599 200.440,133.484 200.000 C 133.369 199.560,133.009 199.200,132.684 199.200 C 132.359 199.200,131.999 198.840,131.884 198.400 C 131.769 197.960,131.409 197.600,131.084 197.600 C 130.759 197.600,130.399 197.240,130.284 196.800 C 130.169 196.360,129.809 196.000,129.484 196.000 C 129.159 196.000,128.799 195.640,128.684 195.200 C 128.569 194.760,128.209 194.400,127.884 194.400 C 127.559 194.400,127.199 194.040,127.084 193.600 C 126.969 193.160,126.609 192.800,126.284 192.800 C 125.959 192.800,125.599 192.440,125.484 192.000 C 125.369 191.560,125.009 191.200,124.684 191.200 C 124.359 191.200,123.999 190.840,123.884 190.400 C 123.769 189.960,123.409 189.600,123.084 189.600 C 122.759 189.600,122.399 189.240,122.284 188.800 C 122.169 188.360,121.809 188.000,121.484 188.000 C 121.159 188.000,120.799 187.640,120.684 187.200 C 120.569 186.760,120.209 186.400,119.884 186.400 C 119.559 186.400,119.199 186.040,119.084 185.600 C 118.969 185.160,118.588 184.800,118.237 184.800 C 117.887 184.800,117.600 184.513,117.600 184.163 C 117.600 183.812,117.240 183.431,116.800 183.316 C 116.360 183.201,116.000 182.841,116.000 182.516 C 116.000 182.191,115.640 181.831,115.200 181.716 C 114.760 181.601,114.400 181.241,114.400 180.916 C 114.400 180.591,114.040 180.231,113.600 180.116 C 113.160 180.001,112.800 179.641,112.800 179.316 C 112.800 178.991,112.457 178.635,112.037 178.526 C 111.617 178.416,111.184 177.983,111.074 177.563 C 110.965 177.143,110.609 176.800,110.284 176.800 C 109.959 176.800,109.599 176.440,109.484 176.000 C 109.369 175.560,109.009 175.200,108.684 175.200 C 108.359 175.200,107.999 174.840,107.884 174.400 C 107.769 173.960,107.409 173.600,107.084 173.600 C 106.759 173.600,106.399 173.240,106.284 172.800 C 106.169 172.360,105.809 172.000,105.484 172.000 C 105.159 172.000,104.799 171.640,104.684 171.200 C 104.569 170.760,104.209 170.400,103.884 170.400 C 103.559 170.400,103.199 170.040,103.084 169.600 C 102.969 169.160,102.609 168.800,102.284 168.800 C 101.959 168.800,101.599 168.440,101.484 168.000 C 101.369 167.560,101.009 167.200,100.684 167.200 C 100.359 167.200,99.999 166.840,99.884 166.400 C 99.769 165.960,99.409 165.600,99.084 165.600 C 98.759 165.600,98.399 165.240,98.284 164.800 C 98.169 164.360,97.809 164.000,97.484 164.000 C 97.159 164.000,96.799 163.640,96.684 163.200 C 96.569 162.760,96.209 162.400,95.884 162.400 C 95.559 162.400,95.199 162.040,95.084 161.600 C 94.969 161.160,94.609 160.800,94.284 160.800 C 93.959 160.800,93.599 160.440,93.484 160.000 C 93.369 159.560,92.988 159.200,92.637 159.200 C 92.287 159.200,92.000 158.913,92.000 158.563 C 92.000 158.212,91.640 157.831,91.200 157.716 C 90.760 157.601,90.400 157.241,90.400 156.916 C 90.400 156.591,90.040 156.231,89.600 156.116 C 89.160 156.001,88.800 155.641,88.800 155.316 C 88.800 154.991,88.440 154.631,88.000 154.516 C 87.560 154.401,87.200 154.041,87.200 153.716 C 87.200 153.391,86.857 153.035,86.437 152.926 C 86.017 152.816,85.584 152.383,85.474 151.963 C 85.365 151.543,85.009 151.200,84.684 151.200 C 84.359 151.200,83.999 150.840,83.884 150.400 C 83.769 149.960,83.388 149.600,83.037 149.600 C 82.687 149.600,82.400 149.313,82.400 148.963 C 82.400 148.612,82.057 148.235,81.637 148.126 C 81.217 148.016,80.784 147.583,80.674 147.163 C 80.565 146.743,80.209 146.400,79.884 146.400 C 79.559 146.400,79.199 146.040,79.084 145.600 C 78.969 145.160,78.588 144.800,78.237 144.800 C 77.887 144.800,77.600 144.513,77.600 144.163 C 77.600 143.812,77.240 143.431,76.800 143.316 C 76.360 143.201,76.000 142.841,76.000 142.516 C 76.000 142.191,75.640 141.831,75.200 141.716 C 74.760 141.601,74.400 141.241,74.400 140.916 C 74.400 140.591,74.057 140.235,73.637 140.126 C 73.217 140.016,72.784 139.583,72.674 139.163 C 72.565 138.743,72.209 138.400,71.884 138.400 C 71.559 138.400,71.199 138.040,71.084 137.600 C 70.969 137.160,70.588 136.800,70.237 136.800 C 69.887 136.800,69.600 136.524,69.600 136.187 C 69.600 135.851,69.285 135.457,68.900 135.314 C 68.515 135.170,67.965 134.726,67.677 134.326 C 66.864 133.196,60.408 133.255,59.693 134.400 M244.288 134.773 C 244.328 135.308,244.108 135.528,243.573 135.488 C 242.641 135.418,242.640 135.417,243.429 134.629 C 244.217 133.840,244.218 133.841,244.288 134.773 M241.088 137.973 C 241.128 138.508,240.908 138.728,240.373 138.688 C 239.441 138.618,239.440 138.617,240.229 137.829 C 241.017 137.040,241.018 137.041,241.088 137.973 M107.722 176.519 C 107.616 176.695,107.277 176.630,106.969 176.374 C 106.661 176.118,106.506 175.752,106.626 175.559 C 106.745 175.366,107.084 175.431,107.379 175.704 C 107.674 175.977,107.829 176.344,107.722 176.519 M109.322 178.119 C 109.216 178.295,108.877 178.230,108.569 177.974 C 108.261 177.718,108.106 177.352,108.226 177.159 C 108.345 176.966,108.684 177.031,108.979 177.304 C 109.274 177.577,109.429 177.944,109.322 178.119 M110.922 179.719 C 110.816 179.895,110.477 179.830,110.169 179.574 C 109.861 179.318,109.706 178.952,109.826 178.759 C 109.945 178.566,110.284 178.631,110.579 178.904 C 110.874 179.177,111.029 179.544,110.922 179.719 M218.400 312.000 L 218.400 336.752 223.921 336.752 L 229.442 336.752 229.272 331.976 C 229.124 327.835,229.185 327.200,229.728 327.200 C 230.073 327.200,230.635 326.800,230.977 326.311 C 231.489 325.580,231.600 325.545,231.600 326.111 C 231.600 327.013,232.685 327.004,232.934 326.100 C 233.040 325.715,233.030 326.165,232.912 327.100 C 232.719 328.635,232.781 328.800,233.549 328.800 C 234.227 328.800,234.400 329.043,234.400 329.997 C 234.400 330.760,234.690 331.374,235.200 331.693 C 235.640 331.968,236.000 332.509,236.000 332.896 C 236.000 333.326,236.302 333.600,236.776 333.600 C 237.384 333.600,237.579 333.925,237.676 335.100 L 237.800 336.600 244.900 336.683 L 252.000 336.766 252.000 335.229 C 252.000 333.553,250.251 332.513,249.864 333.959 C 249.715 334.517,249.687 334.512,249.646 333.924 C 249.621 333.552,249.780 333.136,250.000 333.000 C 250.744 332.540,250.454 330.739,249.600 330.516 C 249.157 330.400,248.800 329.970,248.800 329.553 C 248.800 329.067,248.517 328.800,248.000 328.800 C 247.348 328.800,247.200 328.533,247.200 327.363 C 247.200 326.262,247.013 325.876,246.400 325.716 C 245.957 325.600,245.600 325.170,245.600 324.753 C 245.600 324.267,245.317 324.000,244.800 324.000 C 244.148 324.000,244.000 323.733,244.000 322.563 C 244.000 321.462,243.813 321.076,243.200 320.916 C 242.757 320.800,242.400 320.370,242.400 319.953 C 242.400 319.481,242.118 319.200,241.642 319.200 C 241.058 319.200,240.851 318.856,240.742 317.700 C 240.517 315.321,240.764 314.400,241.628 314.400 C 242.117 314.400,242.400 314.124,242.400 313.647 C 242.400 313.230,242.757 312.800,243.200 312.684 C 243.640 312.569,244.000 312.188,244.000 311.837 C 244.000 311.487,244.276 311.200,244.613 311.200 C 244.949 311.200,245.343 310.885,245.486 310.500 C 245.630 310.115,246.074 309.565,246.474 309.277 C 246.873 308.990,247.200 308.495,247.200 308.177 C 247.200 307.860,247.449 307.600,247.753 307.600 C 248.058 307.600,248.415 307.195,248.548 306.700 C 248.906 305.363,248.850 304.722,248.400 305.000 C 248.180 305.136,248.000 305.076,248.000 304.866 C 248.000 304.657,248.279 304.378,248.621 304.247 C 248.977 304.111,249.137 304.178,248.997 304.405 C 248.863 304.622,249.123 304.800,249.576 304.800 C 250.764 304.800,250.710 302.725,249.500 301.837 L 248.600 301.177 249.532 301.620 C 250.379 302.022,250.452 301.977,250.332 301.131 C 250.138 299.759,238.074 299.432,237.719 300.789 C 237.602 301.235,237.241 301.600,236.916 301.600 C 236.591 301.600,236.231 301.960,236.116 302.400 C 236.001 302.840,235.652 303.200,235.341 303.200 C 235.030 303.200,234.657 303.515,234.514 303.900 C 234.370 304.285,233.926 304.835,233.526 305.123 C 233.127 305.410,232.800 305.815,232.800 306.023 C 232.800 306.230,232.440 306.760,232.000 307.200 C 231.560 307.640,231.200 308.360,231.200 308.800 C 231.200 309.324,230.933 309.600,230.428 309.600 C 229.949 309.600,229.584 309.942,229.468 310.500 C 229.366 310.995,229.308 305.966,229.341 299.324 L 229.400 287.248 223.900 287.248 L 218.400 287.248 218.400 312.000 M114.667 289.067 C 114.173 289.561,114.365 299.005,114.880 299.520 C 115.223 299.863,117.311 299.976,122.180 299.917 L 129.000 299.834 123.200 299.600 L 117.400 299.366 123.067 299.283 C 126.431 299.234,128.788 299.037,128.867 298.798 C 128.940 298.577,128.947 307.042,128.882 317.608 L 128.764 336.820 135.082 336.710 L 141.400 336.600 141.504 318.300 L 141.608 300.000 148.004 300.000 L 154.400 300.000 154.400 294.400 L 154.400 288.800 134.667 288.800 C 123.813 288.800,114.813 288.920,114.667 289.067 M153.406 298.810 C 153.545 299.035,153.511 299.187,153.330 299.146 C 153.148 299.106,152.721 299.197,152.380 299.349 C 152.039 299.500,149.339 299.568,146.380 299.500 L 141.000 299.375 146.676 299.287 C 149.930 299.237,152.458 299.029,152.600 298.800 C 152.913 298.294,153.089 298.296,153.406 298.810 M159.507 300.800 C 159.151 301.370,158.574 301.600,157.504 301.600 C 156.296 301.600,156.000 301.749,156.000 302.355 C 156.000 302.902,155.613 303.184,154.600 303.374 C 153.830 303.518,153.200 303.832,153.200 304.072 C 153.200 304.312,152.750 304.925,152.200 305.435 C 151.460 306.121,151.200 306.771,151.200 307.934 C 151.200 309.170,151.029 309.551,150.400 309.716 C 149.767 309.881,149.600 310.262,149.600 311.534 C 149.600 313.986,150.269 314.400,154.229 314.400 C 157.470 314.400,157.600 314.435,157.600 315.311 C 157.600 316.128,157.440 316.206,156.038 316.072 C 154.885 315.962,154.312 316.116,153.847 316.662 C 153.501 317.068,152.764 317.903,152.209 318.518 C 151.654 319.133,151.200 319.877,151.200 320.172 C 151.200 320.466,150.840 320.801,150.400 320.916 C 149.651 321.112,149.600 321.462,149.600 326.400 C 149.600 331.338,149.651 331.688,150.400 331.884 C 150.843 332.000,151.200 332.430,151.200 332.847 C 151.200 333.655,151.792 333.860,152.204 333.193 C 152.642 332.485,153.100 333.141,152.900 334.190 C 152.743 335.013,152.864 335.200,153.553 335.200 C 154.133 335.200,154.400 335.452,154.400 336.000 C 154.400 336.658,154.667 336.800,155.904 336.800 C 156.974 336.800,157.551 337.030,157.907 337.600 C 158.664 338.813,165.207 338.793,166.426 337.574 C 167.203 336.797,167.685 336.751,174.676 336.781 C 179.689 336.803,182.280 336.666,182.651 336.358 C 183.448 335.696,183.324 334.484,182.400 333.907 C 181.631 333.427,181.600 332.974,181.600 322.304 C 181.600 311.733,181.562 311.162,180.800 310.400 C 180.284 309.884,180.000 309.067,180.000 308.096 C 180.000 307.044,179.768 306.448,179.228 306.110 C 178.803 305.845,178.398 305.127,178.328 304.514 C 178.227 303.631,177.969 303.373,177.086 303.272 C 176.473 303.202,175.755 302.797,175.490 302.372 C 175.225 301.947,174.629 301.600,174.166 301.600 C 173.703 301.600,172.998 301.240,172.600 300.800 C 171.938 300.068,171.368 300.000,165.941 300.000 C 160.440 300.000,159.970 300.058,159.507 300.800 M193.800 300.800 C 193.402 301.240,192.694 301.600,192.226 301.600 C 191.759 301.600,191.117 301.960,190.800 302.400 C 190.483 302.840,189.807 303.200,189.299 303.200 C 188.781 303.200,188.264 303.508,188.123 303.900 C 187.985 304.285,187.541 304.922,187.136 305.316 C 186.644 305.794,186.400 306.608,186.400 307.769 C 186.400 309.186,186.248 309.546,185.578 309.722 C 184.430 310.022,184.567 314.110,185.733 314.332 C 186.362 314.452,186.403 314.352,186.019 313.636 C 185.664 312.972,185.688 312.800,186.135 312.800 C 186.573 312.800,186.662 313.327,186.537 315.189 C 186.411 317.082,186.525 317.732,187.089 318.324 C 187.480 318.734,187.998 319.414,188.240 319.835 C 188.487 320.264,189.217 320.654,189.900 320.722 C 190.707 320.803,191.187 321.107,191.322 321.622 C 191.486 322.250,191.879 322.400,193.359 322.400 C 194.760 322.400,195.311 322.589,195.693 323.200 C 196.097 323.846,196.626 324.000,198.450 324.000 C 200.370 324.000,200.738 324.119,200.916 324.800 C 201.076 325.413,201.462 325.600,202.563 325.600 C 203.733 325.600,204.000 325.748,204.000 326.400 C 204.000 326.865,203.733 327.200,203.363 327.200 C 203.012 327.200,202.631 327.560,202.516 328.000 C 202.257 328.989,198.800 329.215,198.800 328.243 C 198.800 327.616,197.168 327.084,196.284 327.423 C 195.923 327.562,195.624 327.336,195.490 326.822 C 195.371 326.369,195.438 326.100,195.637 326.223 C 195.837 326.346,196.000 325.897,196.000 325.224 L 196.000 324.000 190.400 324.000 L 184.800 324.000 184.800 327.200 C 184.800 329.867,184.933 330.533,185.600 331.200 C 186.040 331.640,186.400 332.287,186.400 332.637 C 186.400 332.988,186.743 333.365,187.163 333.474 C 187.583 333.584,188.016 334.017,188.126 334.437 C 188.235 334.857,188.674 335.200,189.101 335.200 C 189.527 335.200,190.202 335.560,190.600 336.000 C 191.069 336.518,191.832 336.800,192.766 336.800 C 193.774 336.800,194.358 337.040,194.707 337.600 C 195.245 338.460,204.867 338.862,205.372 338.045 C 205.628 337.631,204.651 336.714,204.263 337.003 C 204.118 337.112,204.103 337.067,204.228 336.906 C 204.353 336.744,205.716 336.669,207.256 336.740 C 209.814 336.857,210.076 336.796,210.275 336.034 C 210.395 335.575,210.750 335.200,211.065 335.200 C 211.828 335.200,213.600 333.395,213.600 332.618 C 213.600 332.258,213.949 332.000,214.437 332.000 C 215.200 332.000,215.262 331.809,215.137 329.850 C 215.043 328.368,215.141 327.754,215.452 327.875 C 216.000 328.086,216.857 325.814,216.540 324.989 C 216.344 324.476,215.924 324.267,215.200 324.320 C 215.090 324.328,215.060 323.380,215.134 322.214 C 215.243 320.491,215.126 319.991,214.508 319.547 C 214.090 319.246,213.630 318.685,213.486 318.300 C 213.185 317.492,211.371 317.342,211.065 318.100 C 210.910 318.485,210.856 318.479,210.832 318.076 C 210.814 317.788,210.632 317.656,210.428 317.783 C 210.223 317.909,209.942 317.830,209.804 317.607 C 209.666 317.383,209.743 317.200,209.976 317.200 C 210.209 317.200,210.400 316.930,210.400 316.600 C 210.400 316.173,209.966 316.000,208.896 316.000 C 207.826 316.000,207.249 315.770,206.893 315.200 C 206.405 314.418,206.493 314.400,210.797 314.400 C 214.592 314.400,215.200 314.310,215.200 313.751 C 215.200 313.220,215.091 313.192,214.600 313.600 C 214.270 313.874,214.000 313.941,214.001 313.749 C 214.001 313.557,212.427 313.459,210.502 313.532 C 208.577 313.605,207.092 313.576,207.201 313.469 C 207.311 313.361,208.930 313.220,210.800 313.154 C 214.886 313.011,215.054 312.854,215.164 309.085 C 215.244 306.336,215.232 306.301,214.277 306.483 C 213.503 306.631,213.347 306.526,213.495 305.957 C 213.704 305.161,211.975 303.200,211.065 303.200 C 210.750 303.200,210.399 302.840,210.284 302.400 C 210.125 301.794,209.738 301.600,208.684 301.600 C 207.630 301.600,207.243 301.406,207.084 300.800 C 206.886 300.044,206.538 300.000,200.699 300.000 C 195.032 300.000,194.464 300.066,193.800 300.800 M261.000 300.800 C 260.602 301.240,259.894 301.600,259.426 301.600 C 258.959 301.600,258.317 301.960,258.000 302.400 C 257.683 302.840,257.007 303.200,256.499 303.200 C 255.981 303.200,255.464 303.508,255.323 303.900 C 255.185 304.285,254.741 304.922,254.336 305.316 C 253.844 305.794,253.600 306.608,253.600 307.769 C 253.600 309.186,253.448 309.546,252.778 309.722 C 251.630 310.022,251.767 314.110,252.933 314.332 C 253.562 314.452,253.603 314.352,253.219 313.636 C 252.864 312.972,252.888 312.800,253.335 312.800 C 253.773 312.800,253.862 313.327,253.737 315.189 C 253.611 317.082,253.725 317.732,254.289 318.324 C 254.680 318.734,255.198 319.414,255.440 319.835 C 255.687 320.264,256.417 320.654,257.100 320.722 C 257.907 320.803,258.387 321.107,258.522 321.622 C 258.686 322.250,259.079 322.400,260.559 322.400 C 261.960 322.400,262.511 322.589,262.893 323.200 C 263.297 323.846,263.826 324.000,265.650 324.000 C 267.570 324.000,267.938 324.119,268.116 324.800 C 268.276 325.413,268.662 325.600,269.763 325.600 C 270.933 325.600,271.200 325.748,271.200 326.400 C 271.200 326.865,270.933 327.200,270.563 327.200 C 270.212 327.200,269.831 327.560,269.716 328.000 C 269.457 328.989,266.000 329.215,266.000 328.243 C 266.000 327.616,264.368 327.084,263.484 327.423 C 263.123 327.562,262.824 327.336,262.690 326.822 C 262.571 326.369,262.638 326.100,262.837 326.223 C 263.037 326.346,263.200 325.897,263.200 325.224 L 263.200 324.000 257.600 324.000 L 252.000 324.000 252.000 327.200 C 252.000 329.867,252.133 330.533,252.800 331.200 C 253.240 331.640,253.600 332.287,253.600 332.637 C 253.600 332.988,253.943 333.365,254.363 333.474 C 254.783 333.584,255.216 334.017,255.326 334.437 C 255.435 334.857,255.874 335.200,256.301 335.200 C 256.727 335.200,257.402 335.560,257.800 336.000 C 258.269 336.518,259.032 336.800,259.966 336.800 C 260.974 336.800,261.558 337.040,261.907 337.600 C 262.445 338.460,272.067 338.862,272.572 338.045 C 272.828 337.631,271.851 336.714,271.463 337.003 C 271.318 337.112,271.303 337.067,271.428 336.906 C 271.553 336.744,272.916 336.669,274.456 336.740 C 277.014 336.857,277.276 336.796,277.475 336.034 C 277.595 335.575,277.950 335.200,278.265 335.200 C 279.028 335.200,280.800 333.395,280.800 332.618 C 280.800 332.258,281.149 332.000,281.637 332.000 C 282.400 332.000,282.462 331.809,282.337 329.850 C 282.243 328.368,282.341 327.754,282.652 327.875 C 283.200 328.086,284.057 325.814,283.740 324.989 C 283.544 324.476,283.124 324.267,282.400 324.320 C 282.290 324.328,282.260 323.380,282.334 322.214 C 282.443 320.491,282.326 319.991,281.708 319.547 C 281.290 319.246,280.830 318.685,280.686 318.300 C 280.385 317.492,278.571 317.342,278.265 318.100 C 278.110 318.485,278.056 318.479,278.032 318.076 C 278.014 317.788,277.832 317.656,277.628 317.783 C 277.423 317.909,277.142 317.830,277.004 317.607 C 276.866 317.383,276.943 317.200,277.176 317.200 C 277.409 317.200,277.600 316.930,277.600 316.600 C 277.600 316.173,277.166 316.000,276.096 316.000 C 275.026 316.000,274.449 315.770,274.093 315.200 C 273.605 314.418,273.693 314.400,277.997 314.400 C 281.792 314.400,282.400 314.310,282.400 313.751 C 282.400 313.220,282.291 313.192,281.800 313.600 C 281.470 313.874,281.200 313.941,281.201 313.749 C 281.201 313.557,279.627 313.459,277.702 313.532 C 275.777 313.605,274.292 313.576,274.401 313.469 C 274.511 313.361,276.130 313.220,278.000 313.154 C 282.086 313.011,282.254 312.854,282.364 309.085 C 282.444 306.336,282.432 306.301,281.477 306.483 C 280.703 306.631,280.547 306.526,280.695 305.957 C 280.904 305.161,279.175 303.200,278.265 303.200 C 277.950 303.200,277.599 302.840,277.484 302.400 C 277.325 301.794,276.938 301.600,275.884 301.600 C 274.830 301.600,274.443 301.406,274.284 300.800 C 274.086 300.044,273.738 300.000,267.899 300.000 C 262.232 300.000,261.664 300.066,261.000 300.800 M172.408 301.995 C 172.086 302.194,171.728 302.252,171.612 302.123 C 171.495 301.995,171.626 301.810,171.902 301.711 C 172.179 301.612,172.287 301.322,172.144 301.066 C 171.990 300.791,172.110 300.812,172.438 301.117 C 172.911 301.557,172.907 301.687,172.408 301.995 M194.221 301.166 C 194.097 301.367,194.221 301.612,194.498 301.711 C 194.774 301.810,194.905 301.995,194.788 302.123 C 194.423 302.525,193.483 301.712,193.772 301.245 C 193.924 301.000,194.137 300.800,194.247 300.800 C 194.357 300.800,194.345 300.965,194.221 301.166 M247.400 301.331 C 248.060 301.393,246.755 301.523,244.499 301.622 C 241.913 301.734,240.398 301.652,240.398 301.400 C 240.398 301.039,243.904 301.004,247.400 301.331 M261.421 301.166 C 261.297 301.367,261.421 301.612,261.698 301.711 C 261.974 301.810,262.105 301.995,261.988 302.123 C 261.623 302.525,260.683 301.712,260.972 301.245 C 261.124 301.000,261.337 300.800,261.447 300.800 C 261.557 300.800,261.545 300.965,261.421 301.166 M236.632 304.748 C 236.490 304.977,236.106 305.062,235.777 304.936 C 235.308 304.756,235.281 304.584,235.653 304.136 C 236.182 303.498,237.064 304.049,236.632 304.748 M177.600 304.844 C 178.113 305.213,178.102 305.244,177.526 305.060 C 177.155 304.942,176.783 305.051,176.699 305.302 C 176.612 305.564,176.435 305.469,176.286 305.080 C 175.988 304.304,176.677 304.180,177.600 304.844 M247.496 306.581 C 246.886 307.243,246.617 307.053,246.948 306.192 C 247.083 305.838,247.374 305.660,247.593 305.796 C 247.847 305.952,247.811 306.239,247.496 306.581 M168.027 311.200 C 168.659 311.200,168.800 311.485,168.800 312.761 L 168.800 314.323 166.900 314.461 C 162.717 314.767,162.163 314.563,162.333 312.781 C 162.451 311.549,162.651 311.200,163.242 311.200 C 163.659 311.200,164.344 310.856,164.764 310.436 C 165.927 309.273,166.976 309.208,167.127 310.291 C 167.208 310.879,167.526 311.200,168.027 311.200 M202.400 310.253 C 202.400 310.612,202.732 311.197,203.138 311.553 C 203.544 311.909,203.969 312.695,204.082 313.300 C 204.355 314.752,201.062 315.043,200.684 313.600 C 200.524 312.987,200.138 312.800,199.037 312.800 C 197.771 312.800,197.600 312.681,197.600 311.800 C 197.600 311.178,197.827 310.800,198.200 310.800 C 198.530 310.800,198.800 310.530,198.800 310.200 C 198.800 309.756,199.267 309.600,200.600 309.600 C 201.998 309.600,202.400 309.746,202.400 310.253 M269.600 310.253 C 269.600 310.612,269.932 311.197,270.338 311.553 C 270.744 311.909,271.169 312.695,271.282 313.300 C 271.555 314.752,268.262 315.043,267.884 313.600 C 267.724 312.987,267.338 312.800,266.237 312.800 C 264.971 312.800,264.800 312.681,264.800 311.800 C 264.800 311.178,265.027 310.800,265.400 310.800 C 265.730 310.800,266.000 310.530,266.000 310.200 C 266.000 309.756,266.467 309.600,267.800 309.600 C 269.198 309.600,269.600 309.746,269.600 310.253 M159.200 315.400 C 158.643 316.072,158.000 316.194,158.000 315.629 C 158.000 315.425,158.315 315.176,158.700 315.076 C 159.085 314.975,159.467 314.872,159.549 314.846 C 159.631 314.821,159.474 315.070,159.200 315.400 M168.800 323.782 C 168.800 325.984,167.299 327.200,164.582 327.200 L 162.400 327.200 162.400 325.814 C 162.400 323.572,163.711 322.493,166.500 322.442 L 168.800 322.400 168.800 323.782 " stroke="none" fill="#445c64" fill-rule="evenodd"></path><path id="path1" d="M258.269 49.590 C 258.527 49.869,258.642 50.346,258.526 50.649 C 258.399 50.979,258.578 51.200,258.971 51.200 C 259.711 51.200,259.230 49.890,258.298 49.364 C 257.915 49.147,257.908 49.199,258.269 49.590 M256.400 49.957 C 256.400 50.524,257.546 50.811,257.849 50.321 C 258.015 50.052,257.941 49.989,257.662 50.162 C 257.408 50.319,257.200 50.257,257.200 50.024 C 257.200 49.791,257.020 49.600,256.800 49.600 C 256.580 49.600,256.400 49.761,256.400 49.957 M301.849 76.249 C 288.732 89.367,278.000 100.128,278.000 100.164 C 278.000 100.200,278.375 100.258,278.834 100.293 C 279.377 100.333,279.598 100.171,279.466 99.826 C 279.188 99.103,279.959 98.410,280.718 98.701 C 281.160 98.870,281.270 98.760,281.101 98.318 C 280.794 97.518,281.518 96.794,282.318 97.101 C 282.760 97.270,282.870 97.160,282.701 96.718 C 282.394 95.918,283.118 95.194,283.918 95.501 C 284.360 95.670,284.470 95.560,284.301 95.118 C 283.994 94.318,284.718 93.594,285.518 93.901 C 285.960 94.070,286.070 93.960,285.901 93.518 C 285.594 92.718,286.318 91.994,287.118 92.301 C 287.560 92.470,287.670 92.360,287.501 91.918 C 287.194 91.118,287.918 90.394,288.718 90.701 C 289.160 90.870,289.270 90.760,289.101 90.318 C 288.794 89.518,289.518 88.794,290.318 89.101 C 290.760 89.270,290.870 89.160,290.701 88.718 C 290.394 87.918,291.118 87.194,291.918 87.501 C 292.360 87.670,292.470 87.560,292.301 87.118 C 291.994 86.318,292.718 85.594,293.518 85.901 C 293.960 86.070,294.070 85.960,293.901 85.518 C 293.594 84.718,294.318 83.994,295.118 84.301 C 295.560 84.470,295.670 84.360,295.501 83.918 C 295.194 83.118,295.918 82.394,296.718 82.701 C 297.160 82.870,297.270 82.760,297.101 82.318 C 296.794 81.518,297.518 80.794,298.318 81.101 C 298.760 81.270,298.870 81.160,298.701 80.718 C 298.394 79.918,299.118 79.194,299.918 79.501 C 300.360 79.670,300.470 79.560,300.301 79.118 C 299.994 78.318,300.718 77.594,301.518 77.901 C 301.960 78.070,302.070 77.960,301.901 77.518 C 301.594 76.718,302.318 75.994,303.118 76.301 C 303.560 76.470,303.670 76.360,303.501 75.918 C 303.196 75.124,303.916 74.393,304.703 74.695 C 305.110 74.851,305.240 74.742,305.100 74.364 C 304.798 73.553,313.526 64.797,314.328 65.104 C 314.760 65.270,314.869 65.157,314.701 64.718 C 314.394 63.918,315.118 63.194,315.918 63.501 C 316.360 63.670,316.470 63.560,316.301 63.118 C 315.994 62.318,316.718 61.594,317.518 61.901 C 317.960 62.070,318.070 61.960,317.901 61.518 C 317.594 60.718,318.318 59.994,319.118 60.301 C 319.560 60.470,319.670 60.360,319.501 59.918 C 319.194 59.118,319.918 58.394,320.718 58.701 C 321.160 58.870,321.270 58.760,321.101 58.318 C 320.794 57.518,321.518 56.794,322.318 57.101 C 322.760 57.270,322.870 57.160,322.701 56.718 C 322.396 55.924,323.116 55.193,323.903 55.495 C 324.309 55.651,324.441 55.541,324.304 55.164 C 324.192 54.854,324.561 54.105,325.125 53.500 C 325.688 52.895,326.048 52.400,325.924 52.400 C 325.800 52.400,314.967 63.132,301.849 76.249 M243.429 134.629 C 242.640 135.417,242.641 135.418,243.573 135.488 C 244.108 135.528,244.328 135.308,244.288 134.773 C 244.218 133.841,244.217 133.840,243.429 134.629 M240.229 137.829 C 239.440 138.617,239.441 138.618,240.373 138.688 C 240.908 138.728,241.128 138.508,241.088 137.973 C 241.018 137.041,241.017 137.040,240.229 137.829 M106.626 175.559 C 106.506 175.752,106.661 176.118,106.969 176.374 C 107.698 176.979,108.082 176.353,107.379 175.704 C 107.084 175.431,106.745 175.366,106.626 175.559 M108.226 177.159 C 108.106 177.352,108.261 177.718,108.569 177.974 C 109.298 178.579,109.682 177.953,108.979 177.304 C 108.684 177.031,108.345 176.966,108.226 177.159 M109.826 178.759 C 109.706 178.952,109.861 179.318,110.169 179.574 C 110.898 180.179,111.282 179.553,110.579 178.904 C 110.284 178.631,109.945 178.566,109.826 178.759 M229.376 300.000 C 229.376 306.270,229.432 308.835,229.499 305.700 C 229.567 302.565,229.567 297.435,229.499 294.300 C 229.432 291.165,229.376 293.730,229.376 300.000 M128.832 298.700 C 128.808 299.071,127.329 299.221,123.100 299.283 L 117.400 299.366 123.200 299.583 C 128.889 299.796,129.472 299.708,129.065 298.700 C 128.904 298.300,128.857 298.300,128.832 298.700 M152.600 298.800 C 152.458 299.029,149.930 299.237,146.676 299.287 L 141.000 299.375 146.380 299.500 C 149.339 299.568,152.039 299.500,152.380 299.349 C 152.721 299.197,153.148 299.106,153.330 299.146 C 153.511 299.187,153.545 299.035,153.406 298.810 C 153.089 298.296,152.913 298.294,152.600 298.800 M172.144 301.066 C 172.287 301.322,172.179 301.612,171.902 301.711 C 171.626 301.810,171.495 301.995,171.612 302.123 C 171.728 302.252,172.086 302.194,172.408 301.995 C 172.907 301.687,172.911 301.557,172.438 301.117 C 172.110 300.812,171.990 300.791,172.144 301.066 M193.772 301.245 C 193.483 301.712,194.423 302.525,194.788 302.123 C 194.905 301.995,194.774 301.810,194.498 301.711 C 194.221 301.612,194.097 301.367,194.221 301.166 C 194.345 300.965,194.357 300.800,194.247 300.800 C 194.137 300.800,193.924 301.000,193.772 301.245 M240.398 301.400 C 240.398 301.652,241.913 301.734,244.499 301.622 C 248.708 301.438,248.387 301.302,243.299 301.109 C 241.559 301.044,240.398 301.160,240.398 301.400 M260.972 301.245 C 260.683 301.712,261.623 302.525,261.988 302.123 C 262.105 301.995,261.974 301.810,261.698 301.711 C 261.421 301.612,261.297 301.367,261.421 301.166 C 261.545 300.965,261.557 300.800,261.447 300.800 C 261.337 300.800,261.124 301.000,260.972 301.245 M235.653 304.136 C 235.281 304.584,235.308 304.756,235.777 304.936 C 236.501 305.213,237.042 304.482,236.508 303.948 C 236.265 303.705,235.954 303.774,235.653 304.136 M176.286 305.080 C 176.435 305.469,176.612 305.564,176.699 305.302 C 176.783 305.051,177.155 304.942,177.526 305.060 C 178.102 305.244,178.113 305.213,177.600 304.844 C 176.677 304.180,175.988 304.304,176.286 305.080 M246.948 306.192 C 246.617 307.053,246.886 307.243,247.496 306.581 C 247.811 306.239,247.847 305.952,247.593 305.796 C 247.374 305.660,247.083 305.838,246.948 306.192 M214.634 312.421 C 214.433 312.903,213.590 313.067,210.890 313.152 C 208.974 313.212,207.315 313.352,207.204 313.463 C 207.093 313.574,208.577 313.605,210.502 313.532 C 212.574 313.454,214.001 313.557,214.001 313.786 C 214.000 313.998,214.291 313.881,214.646 313.525 C 215.002 313.169,215.203 312.636,215.093 312.339 C 214.936 311.915,214.838 311.932,214.634 312.421 M281.834 312.421 C 281.633 312.903,280.790 313.067,278.090 313.152 C 276.174 313.212,274.515 313.352,274.404 313.463 C 274.293 313.574,275.777 313.605,277.702 313.532 C 279.774 313.454,281.201 313.557,281.201 313.786 C 281.200 313.998,281.491 313.881,281.846 313.525 C 282.202 313.169,282.403 312.636,282.293 312.339 C 282.136 311.915,282.038 311.932,281.834 312.421 M185.932 313.500 C 186.130 313.885,186.390 314.470,186.510 314.800 C 186.630 315.130,186.699 314.815,186.664 314.101 C 186.627 313.343,186.386 312.801,186.086 312.801 C 185.726 312.800,185.680 313.010,185.932 313.500 M253.132 313.500 C 253.330 313.885,253.590 314.470,253.710 314.800 C 253.830 315.130,253.899 314.815,253.864 314.101 C 253.827 313.343,253.586 312.801,253.286 312.801 C 252.926 312.800,252.880 313.010,253.132 313.500 M158.700 315.076 C 158.315 315.176,158.000 315.425,158.000 315.629 C 158.000 316.194,158.643 316.072,159.200 315.400 C 159.474 315.070,159.631 314.821,159.549 314.846 C 159.467 314.872,159.085 314.975,158.700 315.076 M229.348 331.200 C 229.348 333.510,229.414 334.455,229.495 333.300 C 229.576 332.145,229.576 330.255,229.495 329.100 C 229.414 327.945,229.348 328.890,229.348 331.200 " stroke="none" fill="#485c64" fill-rule="evenodd"></path><path id="path2" d="M258.269 49.590 C 258.527 49.869,258.642 50.346,258.526 50.649 C 258.399 50.979,258.578 51.200,258.971 51.200 C 259.711 51.200,259.230 49.890,258.298 49.364 C 257.915 49.147,257.908 49.199,258.269 49.590 M256.400 49.957 C 256.400 50.524,257.546 50.811,257.849 50.321 C 258.015 50.052,257.941 49.989,257.662 50.162 C 257.408 50.319,257.200 50.257,257.200 50.024 C 257.200 49.791,257.020 49.600,256.800 49.600 C 256.580 49.600,256.400 49.761,256.400 49.957 M301.849 76.249 C 288.732 89.367,278.000 100.128,278.000 100.164 C 278.000 100.200,278.375 100.258,278.834 100.293 C 279.377 100.333,279.598 100.171,279.466 99.826 C 279.188 99.103,279.959 98.410,280.718 98.701 C 281.160 98.870,281.270 98.760,281.101 98.318 C 280.794 97.518,281.518 96.794,282.318 97.101 C 282.760 97.270,282.870 97.160,282.701 96.718 C 282.394 95.918,283.118 95.194,283.918 95.501 C 284.360 95.670,284.470 95.560,284.301 95.118 C 283.994 94.318,284.718 93.594,285.518 93.901 C 285.960 94.070,286.070 93.960,285.901 93.518 C 285.594 92.718,286.318 91.994,287.118 92.301 C 287.560 92.470,287.670 92.360,287.501 91.918 C 287.194 91.118,287.918 90.394,288.718 90.701 C 289.160 90.870,289.270 90.760,289.101 90.318 C 288.794 89.518,289.518 88.794,290.318 89.101 C 290.760 89.270,290.870 89.160,290.701 88.718 C 290.394 87.918,291.118 87.194,291.918 87.501 C 292.360 87.670,292.470 87.560,292.301 87.118 C 291.994 86.318,292.718 85.594,293.518 85.901 C 293.960 86.070,294.070 85.960,293.901 85.518 C 293.594 84.718,294.318 83.994,295.118 84.301 C 295.560 84.470,295.670 84.360,295.501 83.918 C 295.194 83.118,295.918 82.394,296.718 82.701 C 297.160 82.870,297.270 82.760,297.101 82.318 C 296.794 81.518,297.518 80.794,298.318 81.101 C 298.760 81.270,298.870 81.160,298.701 80.718 C 298.394 79.918,299.118 79.194,299.918 79.501 C 300.360 79.670,300.470 79.560,300.301 79.118 C 299.994 78.318,300.718 77.594,301.518 77.901 C 301.960 78.070,302.070 77.960,301.901 77.518 C 301.594 76.718,302.318 75.994,303.118 76.301 C 303.560 76.470,303.670 76.360,303.501 75.918 C 303.196 75.124,303.916 74.393,304.703 74.695 C 305.110 74.851,305.240 74.742,305.100 74.364 C 304.798 73.553,313.526 64.797,314.328 65.104 C 314.760 65.270,314.869 65.157,314.701 64.718 C 314.394 63.918,315.118 63.194,315.918 63.501 C 316.360 63.670,316.470 63.560,316.301 63.118 C 315.994 62.318,316.718 61.594,317.518 61.901 C 317.960 62.070,318.070 61.960,317.901 61.518 C 317.594 60.718,318.318 59.994,319.118 60.301 C 319.560 60.470,319.670 60.360,319.501 59.918 C 319.194 59.118,319.918 58.394,320.718 58.701 C 321.160 58.870,321.270 58.760,321.101 58.318 C 320.794 57.518,321.518 56.794,322.318 57.101 C 322.760 57.270,322.870 57.160,322.701 56.718 C 322.396 55.924,323.116 55.193,323.903 55.495 C 324.309 55.651,324.441 55.541,324.304 55.164 C 324.192 54.854,324.561 54.105,325.125 53.500 C 325.688 52.895,326.048 52.400,325.924 52.400 C 325.800 52.400,314.967 63.132,301.849 76.249 M243.429 134.629 C 242.640 135.417,242.641 135.418,243.573 135.488 C 244.108 135.528,244.328 135.308,244.288 134.773 C 244.218 133.841,244.217 133.840,243.429 134.629 M240.229 137.829 C 239.440 138.617,239.441 138.618,240.373 138.688 C 240.908 138.728,241.128 138.508,241.088 137.973 C 241.018 137.041,241.017 137.040,240.229 137.829 M106.626 175.559 C 106.506 175.752,106.661 176.118,106.969 176.374 C 107.698 176.979,108.082 176.353,107.379 175.704 C 107.084 175.431,106.745 175.366,106.626 175.559 M108.226 177.159 C 108.106 177.352,108.261 177.718,108.569 177.974 C 109.298 178.579,109.682 177.953,108.979 177.304 C 108.684 177.031,108.345 176.966,108.226 177.159 M109.826 178.759 C 109.706 178.952,109.861 179.318,110.169 179.574 C 110.898 180.179,111.282 179.553,110.579 178.904 C 110.284 178.631,109.945 178.566,109.826 178.759 M229.376 300.000 C 229.376 306.270,229.432 308.835,229.499 305.700 C 229.567 302.565,229.567 297.435,229.499 294.300 C 229.432 291.165,229.376 293.730,229.376 300.000 M128.832 298.700 C 128.808 299.071,127.329 299.221,123.100 299.283 L 117.400 299.366 123.200 299.583 C 128.889 299.796,129.472 299.708,129.065 298.700 C 128.904 298.300,128.857 298.300,128.832 298.700 M152.600 298.800 C 152.458 299.029,149.930 299.237,146.676 299.287 L 141.000 299.375 146.380 299.500 C 149.339 299.568,152.039 299.500,152.380 299.349 C 152.721 299.197,153.148 299.106,153.330 299.146 C 153.511 299.187,153.545 299.035,153.406 298.810 C 153.089 298.296,152.913 298.294,152.600 298.800 M172.144 301.066 C 172.287 301.322,172.179 301.612,171.902 301.711 C 171.626 301.810,171.495 301.995,171.612 302.123 C 171.728 302.252,172.086 302.194,172.408 301.995 C 172.907 301.687,172.911 301.557,172.438 301.117 C 172.110 300.812,171.990 300.791,172.144 301.066 M193.772 301.245 C 193.483 301.712,194.423 302.525,194.788 302.123 C 194.905 301.995,194.774 301.810,194.498 301.711 C 194.221 301.612,194.097 301.367,194.221 301.166 C 194.345 300.965,194.357 300.800,194.247 300.800 C 194.137 300.800,193.924 301.000,193.772 301.245 M240.398 301.400 C 240.398 301.652,241.913 301.734,244.499 301.622 C 248.708 301.438,248.387 301.302,243.299 301.109 C 241.559 301.044,240.398 301.160,240.398 301.400 M260.972 301.245 C 260.683 301.712,261.623 302.525,261.988 302.123 C 262.105 301.995,261.974 301.810,261.698 301.711 C 261.421 301.612,261.297 301.367,261.421 301.166 C 261.545 300.965,261.557 300.800,261.447 300.800 C 261.337 300.800,261.124 301.000,260.972 301.245 M235.653 304.136 C 235.281 304.584,235.308 304.756,235.777 304.936 C 236.501 305.213,237.042 304.482,236.508 303.948 C 236.265 303.705,235.954 303.774,235.653 304.136 M176.286 305.080 C 176.435 305.469,176.612 305.564,176.699 305.302 C 176.783 305.051,177.155 304.942,177.526 305.060 C 178.102 305.244,178.113 305.213,177.600 304.844 C 176.677 304.180,175.988 304.304,176.286 305.080 M246.948 306.192 C 246.617 307.053,246.886 307.243,247.496 306.581 C 247.811 306.239,247.847 305.952,247.593 305.796 C 247.374 305.660,247.083 305.838,246.948 306.192 M214.634 312.421 C 214.433 312.903,213.590 313.067,210.890 313.152 C 208.974 313.212,207.315 313.352,207.204 313.463 C 207.093 313.574,208.577 313.605,210.502 313.532 C 212.574 313.454,214.001 313.557,214.001 313.786 C 214.000 313.998,214.291 313.881,214.646 313.525 C 215.002 313.169,215.203 312.636,215.093 312.339 C 214.936 311.915,214.838 311.932,214.634 312.421 M281.834 312.421 C 281.633 312.903,280.790 313.067,278.090 313.152 C 276.174 313.212,274.515 313.352,274.404 313.463 C 274.293 313.574,275.777 313.605,277.702 313.532 C 279.774 313.454,281.201 313.557,281.201 313.786 C 281.200 313.998,281.491 313.881,281.846 313.525 C 282.202 313.169,282.403 312.636,282.293 312.339 C 282.136 311.915,282.038 311.932,281.834 312.421 M185.932 313.500 C 186.130 313.885,186.390 314.470,186.510 314.800 C 186.630 315.130,186.699 314.815,186.664 314.101 C 186.627 313.343,186.386 312.801,186.086 312.801 C 185.726 312.800,185.680 313.010,185.932 313.500 M253.132 313.500 C 253.330 313.885,253.590 314.470,253.710 314.800 C 253.830 315.130,253.899 314.815,253.864 314.101 C 253.827 313.343,253.586 312.801,253.286 312.801 C 252.926 312.800,252.880 313.010,253.132 313.500 M158.700 315.076 C 158.315 315.176,158.000 315.425,158.000 315.629 C 158.000 316.194,158.643 316.072,159.200 315.400 C 159.474 315.070,159.631 314.821,159.549 314.846 C 159.467 314.872,159.085 314.975,158.700 315.076 M229.348 331.200 C 229.348 333.510,229.414 334.455,229.495 333.300 C 229.576 332.145,229.576 330.255,229.495 329.100 C 229.414 327.945,229.348 328.890,229.348 331.200 " stroke="none" fill="#485c64" fill-rule="evenodd"></path><path id="path3" d="M258.269 49.590 C 258.527 49.869,258.642 50.346,258.526 50.649 C 258.399 50.979,258.578 51.200,258.971 51.200 C 259.711 51.200,259.230 49.890,258.298 49.364 C 257.915 49.147,257.908 49.199,258.269 49.590 M256.400 49.957 C 256.400 50.524,257.546 50.811,257.849 50.321 C 258.015 50.052,257.941 49.989,257.662 50.162 C 257.408 50.319,257.200 50.257,257.200 50.024 C 257.200 49.791,257.020 49.600,256.800 49.600 C 256.580 49.600,256.400 49.761,256.400 49.957 M301.849 76.249 C 288.732 89.367,278.000 100.128,278.000 100.164 C 278.000 100.200,278.375 100.258,278.834 100.293 C 279.377 100.333,279.598 100.171,279.466 99.826 C 279.188 99.103,279.959 98.410,280.718 98.701 C 281.160 98.870,281.270 98.760,281.101 98.318 C 280.794 97.518,281.518 96.794,282.318 97.101 C 282.760 97.270,282.870 97.160,282.701 96.718 C 282.394 95.918,283.118 95.194,283.918 95.501 C 284.360 95.670,284.470 95.560,284.301 95.118 C 283.994 94.318,284.718 93.594,285.518 93.901 C 285.960 94.070,286.070 93.960,285.901 93.518 C 285.594 92.718,286.318 91.994,287.118 92.301 C 287.560 92.470,287.670 92.360,287.501 91.918 C 287.194 91.118,287.918 90.394,288.718 90.701 C 289.160 90.870,289.270 90.760,289.101 90.318 C 288.794 89.518,289.518 88.794,290.318 89.101 C 290.760 89.270,290.870 89.160,290.701 88.718 C 290.394 87.918,291.118 87.194,291.918 87.501 C 292.360 87.670,292.470 87.560,292.301 87.118 C 291.994 86.318,292.718 85.594,293.518 85.901 C 293.960 86.070,294.070 85.960,293.901 85.518 C 293.594 84.718,294.318 83.994,295.118 84.301 C 295.560 84.470,295.670 84.360,295.501 83.918 C 295.194 83.118,295.918 82.394,296.718 82.701 C 297.160 82.870,297.270 82.760,297.101 82.318 C 296.794 81.518,297.518 80.794,298.318 81.101 C 298.760 81.270,298.870 81.160,298.701 80.718 C 298.394 79.918,299.118 79.194,299.918 79.501 C 300.360 79.670,300.470 79.560,300.301 79.118 C 299.994 78.318,300.718 77.594,301.518 77.901 C 301.960 78.070,302.070 77.960,301.901 77.518 C 301.594 76.718,302.318 75.994,303.118 76.301 C 303.560 76.470,303.670 76.360,303.501 75.918 C 303.196 75.124,303.916 74.393,304.703 74.695 C 305.110 74.851,305.240 74.742,305.100 74.364 C 304.798 73.553,313.526 64.797,314.328 65.104 C 314.760 65.270,314.869 65.157,314.701 64.718 C 314.394 63.918,315.118 63.194,315.918 63.501 C 316.360 63.670,316.470 63.560,316.301 63.118 C 315.994 62.318,316.718 61.594,317.518 61.901 C 317.960 62.070,318.070 61.960,317.901 61.518 C 317.594 60.718,318.318 59.994,319.118 60.301 C 319.560 60.470,319.670 60.360,319.501 59.918 C 319.194 59.118,319.918 58.394,320.718 58.701 C 321.160 58.870,321.270 58.760,321.101 58.318 C 320.794 57.518,321.518 56.794,322.318 57.101 C 322.760 57.270,322.870 57.160,322.701 56.718 C 322.396 55.924,323.116 55.193,323.903 55.495 C 324.309 55.651,324.441 55.541,324.304 55.164 C 324.192 54.854,324.561 54.105,325.125 53.500 C 325.688 52.895,326.048 52.400,325.924 52.400 C 325.800 52.400,314.967 63.132,301.849 76.249 M243.429 134.629 C 242.640 135.417,242.641 135.418,243.573 135.488 C 244.108 135.528,244.328 135.308,244.288 134.773 C 244.218 133.841,244.217 133.840,243.429 134.629 M240.229 137.829 C 239.440 138.617,239.441 138.618,240.373 138.688 C 240.908 138.728,241.128 138.508,241.088 137.973 C 241.018 137.041,241.017 137.040,240.229 137.829 M106.626 175.559 C 106.506 175.752,106.661 176.118,106.969 176.374 C 107.698 176.979,108.082 176.353,107.379 175.704 C 107.084 175.431,106.745 175.366,106.626 175.559 M108.226 177.159 C 108.106 177.352,108.261 177.718,108.569 177.974 C 109.298 178.579,109.682 177.953,108.979 177.304 C 108.684 177.031,108.345 176.966,108.226 177.159 M109.826 178.759 C 109.706 178.952,109.861 179.318,110.169 179.574 C 110.898 180.179,111.282 179.553,110.579 178.904 C 110.284 178.631,109.945 178.566,109.826 178.759 M229.376 300.000 C 229.376 306.270,229.432 308.835,229.499 305.700 C 229.567 302.565,229.567 297.435,229.499 294.300 C 229.432 291.165,229.376 293.730,229.376 300.000 M128.832 298.700 C 128.808 299.071,127.329 299.221,123.100 299.283 L 117.400 299.366 123.200 299.583 C 128.889 299.796,129.472 299.708,129.065 298.700 C 128.904 298.300,128.857 298.300,128.832 298.700 M152.600 298.800 C 152.458 299.029,149.930 299.237,146.676 299.287 L 141.000 299.375 146.380 299.500 C 149.339 299.568,152.039 299.500,152.380 299.349 C 152.721 299.197,153.148 299.106,153.330 299.146 C 153.511 299.187,153.545 299.035,153.406 298.810 C 153.089 298.296,152.913 298.294,152.600 298.800 M172.144 301.066 C 172.287 301.322,172.179 301.612,171.902 301.711 C 171.626 301.810,171.495 301.995,171.612 302.123 C 171.728 302.252,172.086 302.194,172.408 301.995 C 172.907 301.687,172.911 301.557,172.438 301.117 C 172.110 300.812,171.990 300.791,172.144 301.066 M193.772 301.245 C 193.483 301.712,194.423 302.525,194.788 302.123 C 194.905 301.995,194.774 301.810,194.498 301.711 C 194.221 301.612,194.097 301.367,194.221 301.166 C 194.345 300.965,194.357 300.800,194.247 300.800 C 194.137 300.800,193.924 301.000,193.772 301.245 M240.398 301.400 C 240.398 301.652,241.913 301.734,244.499 301.622 C 248.708 301.438,248.387 301.302,243.299 301.109 C 241.559 301.044,240.398 301.160,240.398 301.400 M260.972 301.245 C 260.683 301.712,261.623 302.525,261.988 302.123 C 262.105 301.995,261.974 301.810,261.698 301.711 C 261.421 301.612,261.297 301.367,261.421 301.166 C 261.545 300.965,261.557 300.800,261.447 300.800 C 261.337 300.800,261.124 301.000,260.972 301.245 M235.653 304.136 C 235.281 304.584,235.308 304.756,235.777 304.936 C 236.501 305.213,237.042 304.482,236.508 303.948 C 236.265 303.705,235.954 303.774,235.653 304.136 M176.286 305.080 C 176.435 305.469,176.612 305.564,176.699 305.302 C 176.783 305.051,177.155 304.942,177.526 305.060 C 178.102 305.244,178.113 305.213,177.600 304.844 C 176.677 304.180,175.988 304.304,176.286 305.080 M246.948 306.192 C 246.617 307.053,246.886 307.243,247.496 306.581 C 247.811 306.239,247.847 305.952,247.593 305.796 C 247.374 305.660,247.083 305.838,246.948 306.192 M214.634 312.421 C 214.433 312.903,213.590 313.067,210.890 313.152 C 208.974 313.212,207.315 313.352,207.204 313.463 C 207.093 313.574,208.577 313.605,210.502 313.532 C 212.574 313.454,214.001 313.557,214.001 313.786 C 214.000 313.998,214.291 313.881,214.646 313.525 C 215.002 313.169,215.203 312.636,215.093 312.339 C 214.936 311.915,214.838 311.932,214.634 312.421 M281.834 312.421 C 281.633 312.903,280.790 313.067,278.090 313.152 C 276.174 313.212,274.515 313.352,274.404 313.463 C 274.293 313.574,275.777 313.605,277.702 313.532 C 279.774 313.454,281.201 313.557,281.201 313.786 C 281.200 313.998,281.491 313.881,281.846 313.525 C 282.202 313.169,282.403 312.636,282.293 312.339 C 282.136 311.915,282.038 311.932,281.834 312.421 M185.932 313.500 C 186.130 313.885,186.390 314.470,186.510 314.800 C 186.630 315.130,186.699 314.815,186.664 314.101 C 186.627 313.343,186.386 312.801,186.086 312.801 C 185.726 312.800,185.680 313.010,185.932 313.500 M253.132 313.500 C 253.330 313.885,253.590 314.470,253.710 314.800 C 253.830 315.130,253.899 314.815,253.864 314.101 C 253.827 313.343,253.586 312.801,253.286 312.801 C 252.926 312.800,252.880 313.010,253.132 313.500 M158.700 315.076 C 158.315 315.176,158.000 315.425,158.000 315.629 C 158.000 316.194,158.643 316.072,159.200 315.400 C 159.474 315.070,159.631 314.821,159.549 314.846 C 159.467 314.872,159.085 314.975,158.700 315.076 M229.348 331.200 C 229.348 333.510,229.414 334.455,229.495 333.300 C 229.576 332.145,229.576 330.255,229.495 329.100 C 229.414 327.945,229.348 328.890,229.348 331.200 " stroke="none" fill="#485c64" fill-rule="evenodd"></path><path id="path4" d="M258.269 49.590 C 258.527 49.869,258.642 50.346,258.526 50.649 C 258.399 50.979,258.578 51.200,258.971 51.200 C 259.711 51.200,259.230 49.890,258.298 49.364 C 257.915 49.147,257.908 49.199,258.269 49.590 M256.400 49.957 C 256.400 50.524,257.546 50.811,257.849 50.321 C 258.015 50.052,257.941 49.989,257.662 50.162 C 257.408 50.319,257.200 50.257,257.200 50.024 C 257.200 49.791,257.020 49.600,256.800 49.600 C 256.580 49.600,256.400 49.761,256.400 49.957 M301.849 76.249 C 288.732 89.367,278.000 100.128,278.000 100.164 C 278.000 100.200,278.375 100.258,278.834 100.293 C 279.377 100.333,279.598 100.171,279.466 99.826 C 279.188 99.103,279.959 98.410,280.718 98.701 C 281.160 98.870,281.270 98.760,281.101 98.318 C 280.794 97.518,281.518 96.794,282.318 97.101 C 282.760 97.270,282.870 97.160,282.701 96.718 C 282.394 95.918,283.118 95.194,283.918 95.501 C 284.360 95.670,284.470 95.560,284.301 95.118 C 283.994 94.318,284.718 93.594,285.518 93.901 C 285.960 94.070,286.070 93.960,285.901 93.518 C 285.594 92.718,286.318 91.994,287.118 92.301 C 287.560 92.470,287.670 92.360,287.501 91.918 C 287.194 91.118,287.918 90.394,288.718 90.701 C 289.160 90.870,289.270 90.760,289.101 90.318 C 288.794 89.518,289.518 88.794,290.318 89.101 C 290.760 89.270,290.870 89.160,290.701 88.718 C 290.394 87.918,291.118 87.194,291.918 87.501 C 292.360 87.670,292.470 87.560,292.301 87.118 C 291.994 86.318,292.718 85.594,293.518 85.901 C 293.960 86.070,294.070 85.960,293.901 85.518 C 293.594 84.718,294.318 83.994,295.118 84.301 C 295.560 84.470,295.670 84.360,295.501 83.918 C 295.194 83.118,295.918 82.394,296.718 82.701 C 297.160 82.870,297.270 82.760,297.101 82.318 C 296.794 81.518,297.518 80.794,298.318 81.101 C 298.760 81.270,298.870 81.160,298.701 80.718 C 298.394 79.918,299.118 79.194,299.918 79.501 C 300.360 79.670,300.470 79.560,300.301 79.118 C 299.994 78.318,300.718 77.594,301.518 77.901 C 301.960 78.070,302.070 77.960,301.901 77.518 C 301.594 76.718,302.318 75.994,303.118 76.301 C 303.560 76.470,303.670 76.360,303.501 75.918 C 303.196 75.124,303.916 74.393,304.703 74.695 C 305.110 74.851,305.240 74.742,305.100 74.364 C 304.798 73.553,313.526 64.797,314.328 65.104 C 314.760 65.270,314.869 65.157,314.701 64.718 C 314.394 63.918,315.118 63.194,315.918 63.501 C 316.360 63.670,316.470 63.560,316.301 63.118 C 315.994 62.318,316.718 61.594,317.518 61.901 C 317.960 62.070,318.070 61.960,317.901 61.518 C 317.594 60.718,318.318 59.994,319.118 60.301 C 319.560 60.470,319.670 60.360,319.501 59.918 C 319.194 59.118,319.918 58.394,320.718 58.701 C 321.160 58.870,321.270 58.760,321.101 58.318 C 320.794 57.518,321.518 56.794,322.318 57.101 C 322.760 57.270,322.870 57.160,322.701 56.718 C 322.396 55.924,323.116 55.193,323.903 55.495 C 324.309 55.651,324.441 55.541,324.304 55.164 C 324.192 54.854,324.561 54.105,325.125 53.500 C 325.688 52.895,326.048 52.400,325.924 52.400 C 325.800 52.400,314.967 63.132,301.849 76.249 M243.429 134.629 C 242.640 135.417,242.641 135.418,243.573 135.488 C 244.108 135.528,244.328 135.308,244.288 134.773 C 244.218 133.841,244.217 133.840,243.429 134.629 M240.229 137.829 C 239.440 138.617,239.441 138.618,240.373 138.688 C 240.908 138.728,241.128 138.508,241.088 137.973 C 241.018 137.041,241.017 137.040,240.229 137.829 M106.626 175.559 C 106.506 175.752,106.661 176.118,106.969 176.374 C 107.698 176.979,108.082 176.353,107.379 175.704 C 107.084 175.431,106.745 175.366,106.626 175.559 M108.226 177.159 C 108.106 177.352,108.261 177.718,108.569 177.974 C 109.298 178.579,109.682 177.953,108.979 177.304 C 108.684 177.031,108.345 176.966,108.226 177.159 M109.826 178.759 C 109.706 178.952,109.861 179.318,110.169 179.574 C 110.898 180.179,111.282 179.553,110.579 178.904 C 110.284 178.631,109.945 178.566,109.826 178.759 M229.376 300.000 C 229.376 306.270,229.432 308.835,229.499 305.700 C 229.567 302.565,229.567 297.435,229.499 294.300 C 229.432 291.165,229.376 293.730,229.376 300.000 M128.832 298.700 C 128.808 299.071,127.329 299.221,123.100 299.283 L 117.400 299.366 123.200 299.583 C 128.889 299.796,129.472 299.708,129.065 298.700 C 128.904 298.300,128.857 298.300,128.832 298.700 M152.600 298.800 C 152.458 299.029,149.930 299.237,146.676 299.287 L 141.000 299.375 146.380 299.500 C 149.339 299.568,152.039 299.500,152.380 299.349 C 152.721 299.197,153.148 299.106,153.330 299.146 C 153.511 299.187,153.545 299.035,153.406 298.810 C 153.089 298.296,152.913 298.294,152.600 298.800 M172.144 301.066 C 172.287 301.322,172.179 301.612,171.902 301.711 C 171.626 301.810,171.495 301.995,171.612 302.123 C 171.728 302.252,172.086 302.194,172.408 301.995 C 172.907 301.687,172.911 301.557,172.438 301.117 C 172.110 300.812,171.990 300.791,172.144 301.066 M193.772 301.245 C 193.483 301.712,194.423 302.525,194.788 302.123 C 194.905 301.995,194.774 301.810,194.498 301.711 C 194.221 301.612,194.097 301.367,194.221 301.166 C 194.345 300.965,194.357 300.800,194.247 300.800 C 194.137 300.800,193.924 301.000,193.772 301.245 M240.398 301.400 C 240.398 301.652,241.913 301.734,244.499 301.622 C 248.708 301.438,248.387 301.302,243.299 301.109 C 241.559 301.044,240.398 301.160,240.398 301.400 M260.972 301.245 C 260.683 301.712,261.623 302.525,261.988 302.123 C 262.105 301.995,261.974 301.810,261.698 301.711 C 261.421 301.612,261.297 301.367,261.421 301.166 C 261.545 300.965,261.557 300.800,261.447 300.800 C 261.337 300.800,261.124 301.000,260.972 301.245 M235.653 304.136 C 235.281 304.584,235.308 304.756,235.777 304.936 C 236.501 305.213,237.042 304.482,236.508 303.948 C 236.265 303.705,235.954 303.774,235.653 304.136 M176.286 305.080 C 176.435 305.469,176.612 305.564,176.699 305.302 C 176.783 305.051,177.155 304.942,177.526 305.060 C 178.102 305.244,178.113 305.213,177.600 304.844 C 176.677 304.180,175.988 304.304,176.286 305.080 M246.948 306.192 C 246.617 307.053,246.886 307.243,247.496 306.581 C 247.811 306.239,247.847 305.952,247.593 305.796 C 247.374 305.660,247.083 305.838,246.948 306.192 M214.634 312.421 C 214.433 312.903,213.590 313.067,210.890 313.152 C 208.974 313.212,207.315 313.352,207.204 313.463 C 207.093 313.574,208.577 313.605,210.502 313.532 C 212.574 313.454,214.001 313.557,214.001 313.786 C 214.000 313.998,214.291 313.881,214.646 313.525 C 215.002 313.169,215.203 312.636,215.093 312.339 C 214.936 311.915,214.838 311.932,214.634 312.421 M281.834 312.421 C 281.633 312.903,280.790 313.067,278.090 313.152 C 276.174 313.212,274.515 313.352,274.404 313.463 C 274.293 313.574,275.777 313.605,277.702 313.532 C 279.774 313.454,281.201 313.557,281.201 313.786 C 281.200 313.998,281.491 313.881,281.846 313.525 C 282.202 313.169,282.403 312.636,282.293 312.339 C 282.136 311.915,282.038 311.932,281.834 312.421 M185.932 313.500 C 186.130 313.885,186.390 314.470,186.510 314.800 C 186.630 315.130,186.699 314.815,186.664 314.101 C 186.627 313.343,186.386 312.801,186.086 312.801 C 185.726 312.800,185.680 313.010,185.932 313.500 M253.132 313.500 C 253.330 313.885,253.590 314.470,253.710 314.800 C 253.830 315.130,253.899 314.815,253.864 314.101 C 253.827 313.343,253.586 312.801,253.286 312.801 C 252.926 312.800,252.880 313.010,253.132 313.500 M158.700 315.076 C 158.315 315.176,158.000 315.425,158.000 315.629 C 158.000 316.194,158.643 316.072,159.200 315.400 C 159.474 315.070,159.631 314.821,159.549 314.846 C 159.467 314.872,159.085 314.975,158.700 315.076 M229.348 331.200 C 229.348 333.510,229.414 334.455,229.495 333.300 C 229.576 332.145,229.576 330.255,229.495 329.100 C 229.414 327.945,229.348 328.890,229.348 331.200 " stroke="none" fill="#485c64" fill-rule="evenodd"></path></g></svg>